<svg id="svg" version="1.1" xmlns="http://www.w3.org/2000/svg" xmlns:xlink="http://www.w3.org/1999/xlink" width="400" height="126.8882175226586" viewBox="0, 0, 400,126.8882175226586"><g id="svgg"><path id="path0" d="M362.034 1.875 C 361.603 2.305,361.131 2.847,360.417 3.735 C 360.142 4.077,359.692 4.605,359.417 4.909 C 359.142 5.213,358.654 5.779,358.333 6.166 C 358.012 6.553,357.656 6.968,357.542 7.089 C 357.427 7.211,357.333 7.373,357.333 7.451 C 357.333 7.529,357.202 7.708,357.042 7.848 C 356.652 8.189,355.055 10.040,354.221 11.116 C 354.021 11.373,353.646 11.823,353.388 12.116 C 353.129 12.409,352.692 12.927,352.417 13.267 C 352.142 13.607,351.702 14.117,351.441 14.401 C 351.179 14.685,350.766 15.179,350.524 15.500 C 350.049 16.128,349.409 16.885,348.988 17.316 C 348.844 17.463,348.563 17.819,348.365 18.107 C 348.166 18.394,347.759 18.884,347.460 19.195 C 347.161 19.506,346.617 20.128,346.250 20.578 C 345.546 21.443,344.695 22.459,344.417 22.768 C 344.325 22.870,344.025 23.234,343.750 23.577 C 343.475 23.920,343.172 24.287,343.077 24.392 C 342.848 24.645,341.256 26.547,340.417 27.570 C 340.050 28.017,339.675 28.465,339.583 28.566 C 339.492 28.667,338.858 29.425,338.175 30.250 C 337.493 31.075,336.649 32.049,336.300 32.415 C 335.952 32.781,335.667 33.129,335.667 33.188 C 335.667 33.294,335.119 33.941,333.708 35.501 C 333.319 35.932,333.000 36.343,333.000 36.415 C 333.000 36.486,332.831 36.706,332.625 36.902 C 332.315 37.197,330.654 39.150,330.204 39.750 C 330.135 39.842,329.813 40.254,329.488 40.667 C 329.164 41.079,328.809 41.626,328.700 41.882 C 328.590 42.137,328.228 42.642,327.894 43.003 C 327.560 43.364,327.170 43.830,327.028 44.038 C 326.886 44.246,326.708 44.459,326.634 44.510 C 326.559 44.562,326.317 44.850,326.095 45.151 C 325.873 45.451,325.439 45.972,325.130 46.307 C 324.821 46.642,324.204 47.367,323.758 47.917 C 323.313 48.467,322.439 49.517,321.816 50.250 C 321.192 50.983,319.960 52.446,319.076 53.500 C 318.192 54.554,317.120 55.823,316.693 56.320 C 316.266 56.817,315.617 57.607,315.250 58.076 C 314.883 58.545,314.300 59.234,313.953 59.608 C 313.606 59.981,312.969 60.738,312.536 61.289 C 312.104 61.840,311.394 62.702,310.958 63.205 C 310.523 63.708,310.167 64.174,310.167 64.240 C 310.167 64.360,311.240 65.765,311.575 66.083 C 311.671 66.175,312.023 66.587,312.357 67.000 C 312.690 67.412,313.162 67.975,313.405 68.250 C 313.649 68.525,314.013 68.965,314.215 69.228 C 314.418 69.491,315.108 70.315,315.750 71.061 C 316.392 71.806,316.971 72.491,317.038 72.583 C 317.105 72.675,317.705 73.394,318.372 74.182 C 319.038 74.969,319.883 75.979,320.250 76.426 C 320.617 76.873,321.182 77.541,321.506 77.911 C 321.830 78.281,322.518 79.108,323.034 79.750 C 323.551 80.392,324.186 81.153,324.445 81.442 C 324.705 81.731,325.123 82.219,325.376 82.526 C 325.629 82.832,326.474 83.833,327.254 84.750 C 328.035 85.667,328.718 86.623,328.774 86.875 C 328.830 87.127,328.943 87.333,329.026 87.333 C 329.109 87.333,329.227 87.465,329.289 87.625 C 329.385 87.876,329.618 88.165,330.584 89.232 C 330.676 89.333,331.087 89.829,331.496 90.333 C 331.906 90.837,332.412 91.415,332.621 91.617 C 332.829 91.819,333.000 92.036,333.000 92.098 C 333.000 92.161,333.309 92.559,333.686 92.981 C 334.063 93.404,334.645 94.055,334.978 94.428 C 335.311 94.800,335.806 95.400,336.077 95.761 C 336.349 96.122,336.649 96.500,336.744 96.602 C 336.839 96.704,337.142 97.065,337.417 97.406 C 337.979 98.101,338.110 98.258,339.167 99.501 C 339.579 99.987,340.048 100.523,340.208 100.692 C 340.369 100.861,340.500 101.031,340.500 101.069 C 340.500 101.107,340.744 101.392,341.042 101.702 C 341.340 102.013,341.733 102.475,341.917 102.730 C 342.100 102.984,342.475 103.441,342.750 103.745 C 343.025 104.049,343.475 104.582,343.750 104.929 C 344.025 105.276,344.365 105.680,344.507 105.828 C 344.648 105.976,345.208 106.656,345.752 107.340 C 346.295 108.024,347.018 108.883,347.358 109.250 C 348.268 110.232,350.154 112.471,350.909 113.465 C 351.272 113.943,351.628 114.333,351.701 114.333 C 351.774 114.333,351.833 114.407,351.833 114.497 C 351.833 114.587,352.077 114.923,352.375 115.244 C 352.673 115.565,353.142 116.103,353.417 116.440 C 353.692 116.777,354.084 117.247,354.289 117.485 C 354.494 117.722,354.720 117.992,354.792 118.083 C 355.072 118.442,356.426 120.085,356.583 120.258 C 356.675 120.359,357.050 120.803,357.417 121.245 C 357.783 121.687,358.159 122.132,358.252 122.233 C 358.345 122.334,358.795 122.866,359.252 123.416 C 359.709 123.965,360.158 124.496,360.250 124.596 C 360.342 124.697,360.667 125.087,360.973 125.465 C 362.230 127.013,359.599 126.833,381.061 126.833 L 400.000 126.833 400.000 126.449 C 400.000 126.005,399.694 125.560,398.219 123.862 C 397.927 123.525,397.289 122.764,396.802 122.171 C 396.315 121.577,395.804 120.972,395.667 120.825 C 395.279 120.412,394.645 119.662,393.916 118.754 C 393.134 117.779,392.515 117.045,392.167 116.677 C 392.029 116.532,391.617 116.039,391.250 115.582 C 390.883 115.125,390.283 114.425,389.917 114.028 C 389.550 113.630,389.182 113.180,389.098 113.027 C 389.015 112.875,388.760 112.563,388.531 112.333 C 388.302 112.104,387.669 111.354,387.122 110.667 C 386.576 109.979,385.838 109.102,385.481 108.718 C 385.125 108.334,384.833 107.984,384.833 107.941 C 384.833 107.897,384.590 107.606,384.292 107.293 C 383.994 106.980,383.525 106.432,383.250 106.076 C 382.975 105.719,382.619 105.294,382.458 105.130 C 382.298 104.967,382.167 104.799,382.167 104.758 C 382.167 104.716,381.998 104.504,381.792 104.287 C 381.404 103.879,380.546 102.865,379.363 101.417 C 378.988 100.958,378.509 100.396,378.298 100.167 C 378.087 99.938,377.503 99.234,376.999 98.602 C 376.495 97.971,375.858 97.210,375.583 96.912 C 375.308 96.613,374.917 96.149,374.713 95.880 C 374.509 95.611,374.153 95.187,373.921 94.937 C 373.689 94.687,373.500 94.451,373.500 94.411 C 373.500 94.372,373.238 94.069,372.917 93.739 C 372.596 93.408,372.332 93.088,372.331 93.027 C 372.329 92.966,371.991 92.558,371.581 92.120 C 371.170 91.682,370.833 91.254,370.833 91.170 C 370.833 91.086,370.737 90.957,370.619 90.883 C 370.501 90.810,370.069 90.340,369.660 89.839 C 369.251 89.338,368.679 88.663,368.389 88.339 C 368.098 88.015,367.687 87.525,367.475 87.250 C 367.264 86.975,367.014 86.669,366.920 86.569 C 366.827 86.470,366.488 86.062,366.167 85.663 C 365.846 85.264,365.422 84.761,365.224 84.545 C 365.026 84.328,364.627 83.861,364.338 83.505 C 364.048 83.150,363.626 82.647,363.398 82.388 C 363.171 82.129,362.820 81.706,362.618 81.449 C 362.416 81.192,362.110 80.817,361.940 80.616 C 361.769 80.415,361.357 79.916,361.023 79.507 C 360.690 79.098,360.304 78.642,360.167 78.493 C 359.932 78.240,358.969 77.106,358.189 76.167 C 357.999 75.938,357.744 75.637,357.622 75.500 C 357.500 75.362,357.031 74.800,356.579 74.250 C 356.128 73.700,355.494 72.945,355.171 72.573 C 354.278 71.543,353.635 70.778,353.083 70.087 C 352.808 69.742,352.433 69.290,352.250 69.082 C 351.264 67.962,351.026 67.680,350.425 66.917 C 350.063 66.458,349.614 65.925,349.426 65.732 C 348.404 64.683,348.053 63.969,348.477 63.806 C 348.611 63.754,350.277 61.834,351.417 60.418 C 351.883 59.839,352.106 59.579,353.066 58.500 C 353.270 58.271,353.733 57.706,354.094 57.245 C 354.789 56.359,354.952 56.166,355.750 55.274 C 356.025 54.967,356.475 54.427,356.750 54.074 C 357.236 53.450,358.323 52.165,358.720 51.745 C 358.828 51.630,359.179 51.220,359.500 50.833 C 359.821 50.447,360.160 50.045,360.253 49.940 C 360.347 49.836,360.722 49.375,361.087 48.917 C 361.452 48.458,361.829 48.008,361.925 47.917 C 362.022 47.825,362.395 47.375,362.755 46.917 C 363.115 46.458,363.490 45.999,363.589 45.896 C 363.687 45.793,364.026 45.393,364.342 45.006 C 364.658 44.620,365.055 44.141,365.224 43.943 C 365.393 43.745,365.806 43.256,366.141 42.856 C 366.476 42.456,366.938 41.918,367.167 41.659 C 367.396 41.401,367.808 40.911,368.083 40.571 C 368.358 40.232,368.784 39.720,369.030 39.435 C 369.275 39.150,369.914 38.392,370.450 37.750 C 371.883 36.034,372.188 35.674,372.843 34.927 C 373.169 34.554,373.732 33.877,374.093 33.421 C 374.690 32.667,375.309 31.925,375.750 31.435 C 376.064 31.086,376.917 30.066,377.474 29.374 C 377.780 28.994,378.193 28.503,378.390 28.284 C 378.588 28.065,379.012 27.563,379.333 27.170 C 379.654 26.776,379.992 26.371,380.085 26.269 C 380.177 26.167,380.649 25.596,381.133 25.000 C 381.617 24.404,382.217 23.691,382.465 23.415 C 382.713 23.140,383.253 22.502,383.664 21.999 C 384.075 21.495,384.507 21.023,384.623 20.950 C 384.739 20.877,384.833 20.708,384.833 20.575 C 384.833 20.442,384.890 20.333,384.958 20.332 C 385.027 20.331,385.458 19.874,385.917 19.315 C 386.375 18.757,386.900 18.129,387.083 17.920 C 387.267 17.711,387.642 17.256,387.917 16.910 C 388.192 16.564,388.593 16.086,388.809 15.849 C 389.024 15.611,389.474 15.082,389.809 14.673 C 390.143 14.264,390.585 13.754,390.792 13.540 C 390.998 13.327,391.167 13.109,391.167 13.056 C 391.167 13.004,391.677 12.388,392.300 11.689 C 392.924 10.989,393.605 10.192,393.814 9.918 C 394.023 9.644,394.519 9.044,394.915 8.585 C 395.312 8.126,396.225 7.039,396.943 6.171 C 397.662 5.302,398.363 4.464,398.500 4.308 C 398.637 4.152,398.825 3.925,398.917 3.804 C 399.009 3.682,399.290 3.334,399.542 3.029 C 399.811 2.704,400.000 2.273,400.000 1.987 L 400.000 1.500 381.205 1.500 L 362.410 1.500 362.034 1.875 " stroke="none" fill="#33abfb" fill-rule="evenodd"></path><path id="path1" d="M27.708 0.209 C 26.769 0.297,26.000 0.427,26.000 0.498 C 26.000 0.570,25.512 0.680,24.917 0.744 C 24.321 0.808,23.833 0.912,23.833 0.975 C 23.833 1.039,23.331 1.186,22.717 1.302 C 22.103 1.419,21.521 1.579,21.425 1.659 C 21.329 1.738,20.969 1.856,20.625 1.920 C 20.281 1.985,20.000 2.096,20.000 2.167 C 20.000 2.239,19.794 2.345,19.542 2.404 C 18.986 2.534,17.938 3.036,17.861 3.208 C 17.831 3.277,17.725 3.333,17.627 3.333 C 17.269 3.333,15.019 4.516,14.537 4.958 C 14.412 5.073,14.210 5.167,14.089 5.167 C 13.968 5.167,13.826 5.279,13.773 5.417 C 13.720 5.554,13.562 5.667,13.422 5.667 C 13.282 5.667,13.167 5.734,13.167 5.817 C 13.167 5.899,12.923 6.116,12.625 6.297 C 11.597 6.924,7.833 10.478,7.833 10.822 C 7.833 10.911,7.736 11.043,7.617 11.117 C 7.497 11.190,7.220 11.512,7.000 11.833 C 6.780 12.154,6.503 12.477,6.383 12.550 C 6.264 12.623,6.167 12.758,6.167 12.848 C 6.167 12.991,5.578 13.922,5.333 14.167 C 5.164 14.336,4.816 14.930,4.624 15.375 C 4.516 15.627,4.374 15.833,4.310 15.833 C 4.246 15.833,4.144 16.058,4.083 16.333 C 4.023 16.608,3.904 16.833,3.820 16.833 C 3.736 16.833,3.667 16.915,3.667 17.014 C 3.667 17.114,3.405 17.726,3.086 18.374 C 2.767 19.022,2.458 19.803,2.401 20.110 C 2.343 20.416,2.236 20.667,2.163 20.667 C 2.089 20.667,1.978 20.973,1.914 21.347 C 1.851 21.721,1.700 22.218,1.579 22.452 C 1.458 22.686,1.307 23.261,1.244 23.730 C 1.181 24.199,1.063 24.666,0.981 24.767 C 0.900 24.868,0.785 25.412,0.726 25.975 C 0.667 26.539,0.567 27.000,0.502 27.000 C -0.127 27.000,-0.131 44.068,0.497 44.500 C 0.564 44.546,0.673 45.070,0.739 45.665 C 0.805 46.260,0.918 46.822,0.991 46.915 C 1.063 47.008,1.216 47.590,1.330 48.208 C 1.444 48.827,1.596 49.333,1.667 49.333 C 1.737 49.333,1.846 49.671,1.908 50.083 C 1.970 50.496,2.091 50.833,2.177 50.833 C 2.263 50.833,2.334 50.965,2.334 51.125 C 2.335 51.285,2.436 51.609,2.559 51.844 C 2.681 52.080,2.837 52.491,2.904 52.759 C 2.971 53.027,3.077 53.285,3.138 53.332 C 3.305 53.459,4.167 55.254,4.167 55.475 C 4.167 55.580,4.242 55.667,4.333 55.667 C 4.425 55.667,4.500 55.782,4.500 55.922 C 4.500 56.062,4.606 56.218,4.735 56.267 C 4.864 56.317,5.020 56.558,5.082 56.802 C 5.143 57.047,5.244 57.285,5.305 57.332 C 5.367 57.378,5.642 57.754,5.917 58.167 C 6.191 58.579,6.457 58.954,6.508 59.000 C 6.558 59.046,6.776 59.335,6.991 59.643 C 7.947 61.011,11.656 64.678,12.647 65.235 C 12.795 65.319,12.977 65.488,13.050 65.610 C 13.123 65.733,13.275 65.833,13.388 65.833 C 13.500 65.833,13.721 65.983,13.878 66.167 C 14.035 66.350,14.277 66.500,14.415 66.500 C 14.553 66.500,14.667 66.575,14.667 66.667 C 14.667 66.758,14.775 66.833,14.908 66.833 C 15.041 66.833,15.210 66.927,15.283 67.042 C 15.357 67.156,15.867 67.475,16.417 67.750 C 16.967 68.025,17.455 68.300,17.502 68.362 C 17.548 68.423,17.792 68.525,18.043 68.588 C 18.295 68.651,18.500 68.761,18.500 68.833 C 18.500 68.904,18.762 69.012,19.083 69.072 C 19.404 69.133,19.667 69.250,19.667 69.333 C 19.667 69.417,19.930 69.534,20.252 69.595 C 20.574 69.655,20.874 69.764,20.919 69.838 C 20.965 69.911,21.301 70.022,21.667 70.083 C 22.032 70.145,22.371 70.260,22.419 70.338 C 22.468 70.416,23.068 70.574,23.753 70.689 C 24.439 70.804,25.000 70.952,25.000 71.018 C 25.000 71.084,25.581 71.192,26.292 71.258 C 27.002 71.323,27.637 71.461,27.702 71.564 C 27.871 71.828,40.520 71.827,40.849 71.562 C 40.978 71.458,41.590 71.321,42.208 71.257 C 42.827 71.193,43.333 71.085,43.333 71.017 C 43.333 70.949,43.911 70.803,44.617 70.694 C 45.323 70.584,45.942 70.429,45.992 70.351 C 46.042 70.272,46.402 70.154,46.792 70.089 C 47.181 70.024,47.500 69.911,47.500 69.837 C 47.500 69.764,47.762 69.655,48.083 69.594 C 48.404 69.534,48.667 69.422,48.667 69.344 C 48.667 69.267,48.929 69.155,49.250 69.094 C 49.571 69.034,49.833 68.919,49.833 68.839 C 49.833 68.759,50.058 68.644,50.333 68.583 C 50.608 68.523,50.833 68.404,50.833 68.320 C 50.833 68.236,50.926 68.167,51.039 68.167 C 51.327 68.167,53.000 67.306,53.000 67.157 C 53.000 67.091,53.188 66.989,53.417 66.932 C 53.646 66.874,53.833 66.753,53.833 66.663 C 53.833 66.574,53.903 66.500,53.988 66.500 C 54.214 66.500,56.167 65.127,56.167 64.968 C 56.167 64.894,56.257 64.833,56.368 64.833 C 56.547 64.833,56.970 64.456,58.750 62.707 C 59.025 62.437,59.625 61.789,60.083 61.268 C 60.542 60.747,61.048 60.194,61.208 60.040 C 61.369 59.886,61.500 59.663,61.500 59.546 C 61.500 59.429,61.562 59.333,61.639 59.333 C 61.715 59.333,61.883 59.127,62.014 58.875 C 62.144 58.623,62.325 58.326,62.417 58.214 C 62.508 58.103,62.668 57.909,62.771 57.785 C 62.875 57.660,63.016 57.376,63.085 57.154 C 63.155 56.932,63.266 56.712,63.333 56.667 C 63.503 56.551,64.333 54.763,64.333 54.514 C 64.333 54.401,64.446 54.197,64.583 54.060 C 64.721 53.922,64.833 53.665,64.833 53.488 C 64.833 53.311,64.900 53.167,64.981 53.167 C 65.063 53.167,65.178 52.907,65.238 52.590 C 65.297 52.273,65.455 51.805,65.589 51.549 C 65.722 51.293,65.832 50.951,65.832 50.789 C 65.833 50.628,65.905 50.365,65.993 50.206 C 66.300 49.650,66.977 46.147,66.991 45.042 C 66.996 44.652,67.075 44.333,67.167 44.333 C 67.258 44.333,67.333 44.183,67.333 44.000 C 67.333 43.671,67.222 43.667,58.844 43.667 L 50.354 43.667 50.239 44.458 C 50.176 44.894,50.071 45.325,50.007 45.417 C 49.942 45.508,49.796 46.015,49.682 46.542 C 49.569 47.069,49.415 47.500,49.340 47.500 C 49.265 47.500,49.155 47.762,49.094 48.083 C 49.034 48.404,48.919 48.667,48.839 48.667 C 48.759 48.667,48.644 48.892,48.583 49.167 C 48.523 49.442,48.404 49.667,48.320 49.667 C 48.236 49.667,48.167 49.735,48.167 49.818 C 48.167 50.049,47.294 51.333,47.137 51.333 C 47.062 51.333,47.000 51.419,47.000 51.523 C 47.000 51.732,44.788 53.934,44.177 54.333 C 43.967 54.471,43.623 54.715,43.413 54.875 C 43.203 55.035,42.949 55.167,42.849 55.167 C 42.749 55.167,42.667 55.234,42.667 55.315 C 42.667 55.397,42.461 55.515,42.210 55.578 C 41.959 55.642,41.715 55.748,41.668 55.815 C 41.542 55.996,39.838 56.648,39.167 56.772 C 38.846 56.832,38.497 56.947,38.392 57.030 C 37.877 57.432,30.109 57.433,29.848 57.031 C 29.794 56.948,29.395 56.827,28.962 56.764 C 28.529 56.700,28.130 56.576,28.076 56.488 C 28.021 56.400,27.907 56.371,27.822 56.424 C 27.736 56.477,27.667 56.449,27.667 56.362 C 27.667 56.275,27.410 56.156,27.095 56.097 C 26.781 56.038,26.500 55.936,26.470 55.870 C 26.441 55.804,26.122 55.600,25.762 55.417 C 25.402 55.233,25.027 55.006,24.929 54.911 C 24.831 54.816,24.488 54.559,24.167 54.338 C 23.549 53.914,21.921 52.278,21.500 51.660 C 21.363 51.458,21.169 51.207,21.070 51.103 C 20.855 50.877,20.419 50.092,20.157 49.458 C 20.053 49.206,19.906 49.000,19.830 49.000 C 19.755 49.000,19.644 48.775,19.583 48.500 C 19.523 48.225,19.413 48.000,19.339 48.000 C 19.264 48.000,19.155 47.737,19.094 47.417 C 19.034 47.096,18.922 46.833,18.845 46.833 C 18.768 46.833,18.654 46.496,18.592 46.083 C 18.530 45.671,18.420 45.333,18.347 45.333 C 18.275 45.333,18.118 44.640,18.000 43.792 C 17.882 42.944,17.716 42.161,17.632 42.053 C 17.547 41.945,17.435 40.595,17.383 39.053 C 17.331 37.511,17.228 36.172,17.154 36.078 C 17.080 35.983,17.089 35.796,17.174 35.661 C 17.259 35.527,17.333 34.629,17.339 33.667 C 17.345 32.704,17.417 31.429,17.498 30.833 C 17.778 28.789,18.201 26.583,18.330 26.500 C 18.401 26.454,18.512 26.098,18.578 25.708 C 18.643 25.319,18.761 25.000,18.840 25.000 C 18.920 25.000,19.034 24.737,19.094 24.417 C 19.155 24.096,19.264 23.833,19.339 23.833 C 19.413 23.833,19.523 23.608,19.583 23.333 C 19.644 23.058,19.754 22.833,19.829 22.833 C 19.903 22.833,20.010 22.648,20.067 22.422 C 20.165 22.031,20.979 20.699,21.445 20.167 C 21.565 20.029,21.908 19.642,22.207 19.305 C 22.506 18.969,22.867 18.556,23.009 18.389 C 23.152 18.221,23.479 17.933,23.736 17.750 C 23.993 17.567,24.289 17.339,24.393 17.244 C 24.498 17.149,24.883 16.890,25.250 16.669 C 25.617 16.448,25.955 16.213,26.002 16.147 C 26.048 16.081,26.292 15.975,26.543 15.912 C 26.795 15.849,27.000 15.742,27.000 15.675 C 27.000 15.608,27.416 15.453,27.924 15.331 C 28.433 15.209,28.885 15.051,28.930 14.979 C 28.974 14.907,29.460 14.798,30.009 14.736 C 30.558 14.674,31.048 14.558,31.097 14.478 C 31.215 14.288,37.120 14.290,37.238 14.480 C 37.288 14.561,37.817 14.680,38.414 14.744 C 39.011 14.808,39.500 14.919,39.500 14.990 C 39.500 15.062,39.950 15.217,40.500 15.333 C 41.050 15.450,41.500 15.602,41.500 15.671 C 41.500 15.741,41.705 15.849,41.957 15.912 C 42.208 15.975,42.452 16.077,42.498 16.138 C 42.545 16.200,43.031 16.550,43.579 16.917 C 45.211 18.009,47.009 19.740,47.520 20.710 C 47.628 20.915,47.762 21.121,47.817 21.167 C 47.872 21.212,48.104 21.625,48.333 22.083 C 48.563 22.542,48.800 22.955,48.862 23.002 C 48.923 23.048,49.025 23.292,49.088 23.543 C 49.151 23.795,49.255 24.000,49.318 24.000 C 49.381 24.000,49.528 24.460,49.645 25.023 C 49.977 26.632,49.210 26.509,58.615 26.460 L 66.917 26.417 66.866 25.333 C 66.838 24.738,66.739 23.950,66.646 23.583 C 66.554 23.217,66.401 22.542,66.307 22.083 C 66.214 21.625,66.077 21.175,66.004 21.083 C 65.931 20.992,65.818 20.598,65.754 20.208 C 65.690 19.819,65.569 19.500,65.485 19.500 C 65.402 19.500,65.333 19.369,65.332 19.208 C 65.332 19.048,65.226 18.715,65.098 18.470 C 64.970 18.224,64.814 17.792,64.752 17.511 C 64.691 17.230,64.583 17.000,64.513 17.000 C 64.444 17.000,64.288 16.700,64.167 16.333 C 64.046 15.967,63.890 15.667,63.820 15.667 C 63.750 15.667,63.644 15.442,63.583 15.167 C 63.523 14.892,63.410 14.667,63.331 14.667 C 63.253 14.667,63.137 14.501,63.073 14.299 C 63.008 14.097,62.872 13.838,62.770 13.722 C 62.415 13.321,62.249 13.081,62.018 12.634 C 61.396 11.428,57.042 7.036,55.656 6.217 C 55.387 6.058,55.167 5.869,55.167 5.797 C 55.167 5.725,55.058 5.667,54.925 5.667 C 54.792 5.667,54.623 5.571,54.550 5.455 C 54.477 5.338,54.229 5.151,54.000 5.039 C 53.548 4.819,52.967 4.467,52.833 4.333 C 52.788 4.287,52.300 4.025,51.750 3.750 C 51.200 3.475,50.712 3.200,50.665 3.138 C 50.618 3.077,50.356 2.972,50.082 2.905 C 49.808 2.838,49.435 2.682,49.255 2.558 C 49.074 2.435,48.755 2.333,48.546 2.333 C 48.337 2.333,48.167 2.264,48.167 2.180 C 48.167 2.096,47.941 1.977,47.665 1.916 C 47.389 1.856,46.958 1.707,46.707 1.585 C 46.455 1.464,45.856 1.313,45.375 1.250 C 44.894 1.187,44.500 1.075,44.500 1.001 C 44.500 0.927,44.031 0.812,43.458 0.746 C 42.885 0.680,42.379 0.569,42.333 0.498 C 42.046 0.055,31.568 -0.152,27.708 0.209 M68.333 8.667 L 68.333 16.000 78.833 16.000 L 89.333 16.000 89.333 43.083 L 89.333 70.167 97.667 70.167 L 106.000 70.167 106.000 43.083 L 106.000 16.000 116.667 16.000 L 127.333 16.000 127.333 8.667 L 127.333 1.333 97.833 1.333 L 68.333 1.333 68.333 8.667 M133.333 35.750 L 133.333 70.167 141.667 70.167 L 150.000 70.167 150.000 56.250 L 150.000 42.333 165.835 42.333 L 181.670 42.333 181.627 35.375 L 181.583 28.417 165.792 28.374 L 150.000 28.332 150.000 22.166 L 150.000 16.000 167.000 16.000 L 184.000 16.000 184.000 8.667 L 184.000 1.333 158.667 1.333 L 133.333 1.333 133.333 35.750 M199.500 2.095 C 199.500 2.558,199.629 2.810,200.083 3.239 C 200.404 3.542,200.667 3.846,200.667 3.914 C 200.667 3.983,200.967 4.330,201.333 4.686 C 201.700 5.042,202.000 5.402,202.000 5.487 C 202.000 5.572,202.300 5.935,202.667 6.295 C 203.033 6.654,203.333 7.006,203.333 7.077 C 203.333 7.148,203.633 7.497,204.000 7.853 C 204.367 8.208,204.667 8.563,204.667 8.641 C 204.667 8.719,204.929 9.052,205.250 9.383 C 205.571 9.713,205.833 10.049,205.833 10.129 C 205.833 10.210,206.096 10.494,206.417 10.762 C 206.737 11.029,207.000 11.304,207.000 11.372 C 207.000 11.520,207.466 12.108,207.875 12.478 C 208.035 12.622,208.167 12.800,208.167 12.873 C 208.167 12.946,208.495 13.323,208.896 13.711 C 209.297 14.099,209.673 14.573,209.732 14.765 C 209.791 14.957,210.024 15.212,210.250 15.333 C 210.476 15.454,210.707 15.699,210.764 15.876 C 210.820 16.054,211.159 16.483,211.516 16.830 C 211.874 17.177,212.167 17.531,212.167 17.616 C 212.167 17.702,212.429 18.004,212.750 18.288 C 213.071 18.572,213.333 18.883,213.333 18.978 C 213.333 19.073,213.596 19.406,213.917 19.717 C 214.237 20.029,214.500 20.345,214.500 20.420 C 214.500 20.496,214.830 20.873,215.233 21.259 C 215.636 21.645,216.012 22.108,216.069 22.287 C 216.126 22.467,216.357 22.712,216.583 22.833 C 216.809 22.954,217.043 23.210,217.103 23.402 C 217.163 23.593,217.427 23.975,217.690 24.250 C 218.751 25.359,219.500 26.243,219.500 26.387 C 219.500 26.471,219.800 26.830,220.167 27.186 C 220.533 27.542,220.833 27.879,220.833 27.936 C 220.833 27.993,221.133 28.339,221.500 28.706 C 221.867 29.073,222.167 29.439,222.167 29.520 C 222.167 29.601,222.467 29.958,222.833 30.314 C 223.200 30.670,223.502 31.026,223.505 31.105 C 223.508 31.185,223.771 31.509,224.089 31.825 C 224.407 32.142,224.667 32.457,224.667 32.526 C 224.667 32.594,224.929 32.906,225.250 33.217 C 225.571 33.529,225.833 33.839,225.833 33.906 C 225.833 33.973,226.096 34.283,226.417 34.594 C 226.737 34.906,227.000 35.238,227.000 35.333 C 227.000 35.428,227.338 35.829,227.750 36.224 C 228.162 36.619,228.500 36.992,228.500 37.052 C 228.500 37.112,228.762 37.431,229.083 37.761 C 229.404 38.092,229.667 38.435,229.667 38.524 C 229.667 38.709,230.675 39.667,230.870 39.667 C 230.942 39.667,231.000 39.773,231.000 39.902 C 231.000 40.032,231.262 40.408,231.583 40.739 C 231.904 41.069,232.167 41.387,232.167 41.445 C 232.167 41.502,232.429 41.805,232.750 42.116 C 233.071 42.428,233.333 42.756,233.333 42.846 C 233.333 42.935,233.671 43.346,234.083 43.759 C 234.496 44.171,234.833 44.555,234.833 44.613 C 234.833 44.670,235.096 44.971,235.417 45.283 C 235.737 45.594,236.000 45.923,236.000 46.013 C 236.000 46.103,236.262 46.418,236.583 46.712 C 236.904 47.007,237.167 47.313,237.167 47.393 C 237.167 47.473,237.467 47.830,237.833 48.186 C 238.200 48.542,238.500 48.897,238.500 48.974 C 238.500 49.052,238.762 49.386,239.083 49.716 C 239.404 50.047,239.667 50.382,239.667 50.463 C 239.667 50.543,239.929 50.828,240.250 51.095 C 240.571 51.363,240.833 51.637,240.833 51.705 C 240.833 51.850,241.229 52.344,241.875 53.005 C 242.127 53.263,242.333 53.537,242.333 53.613 C 242.333 53.689,242.596 53.971,242.917 54.238 C 243.237 54.506,243.500 54.809,243.500 54.912 C 243.500 55.015,243.760 55.358,244.078 55.675 C 244.396 55.991,244.658 56.306,244.661 56.375 C 244.664 56.444,244.967 56.792,245.333 57.147 C 245.700 57.503,246.000 57.870,246.000 57.963 C 246.000 58.056,246.262 58.363,246.583 58.644 C 246.904 58.926,247.167 59.225,247.167 59.308 C 247.167 59.453,247.563 59.916,249.113 61.581 C 249.496 61.992,249.854 62.468,249.907 62.638 C 249.961 62.808,250.188 63.044,250.411 63.164 C 251.276 63.627,251.240 64.673,250.333 65.469 C 250.058 65.710,249.833 65.966,249.833 66.037 C 249.833 66.109,249.533 66.458,249.167 66.814 C 248.800 67.170,248.500 67.533,248.500 67.620 C 248.500 67.708,248.200 68.057,247.833 68.397 C 247.467 68.736,247.167 69.083,247.167 69.169 C 247.167 69.319,247.009 69.504,245.413 71.218 C 245.002 71.659,244.667 72.088,244.667 72.172 C 244.667 72.256,244.404 72.564,244.083 72.856 C 243.762 73.148,243.500 73.461,243.500 73.552 C 243.500 73.642,243.237 73.971,242.917 74.283 C 242.596 74.594,242.333 74.946,242.333 75.063 C 242.333 75.181,242.154 75.373,241.935 75.490 C 241.716 75.607,241.441 75.883,241.324 76.102 C 241.206 76.321,241.048 76.500,240.972 76.500 C 240.896 76.500,240.833 76.599,240.833 76.721 C 240.833 76.843,240.571 77.161,240.250 77.428 C 239.929 77.696,239.667 77.975,239.667 78.049 C 239.667 78.123,239.404 78.453,239.083 78.784 C 238.762 79.114,238.500 79.457,238.500 79.545 C 238.500 79.633,238.200 79.988,237.833 80.333 C 237.467 80.679,237.167 81.028,237.167 81.110 C 237.167 81.192,237.035 81.374,236.875 81.514 C 236.715 81.654,236.433 81.980,236.250 82.238 C 236.067 82.496,235.673 82.949,235.375 83.245 C 235.077 83.541,234.832 83.851,234.831 83.934 C 234.829 84.016,234.492 84.408,234.081 84.805 C 233.670 85.202,233.333 85.592,233.333 85.672 C 233.333 85.752,233.071 86.072,232.750 86.384 C 232.429 86.695,232.167 86.998,232.167 87.055 C 232.167 87.113,231.904 87.431,231.583 87.761 C 231.262 88.092,231.000 88.426,231.000 88.505 C 231.000 88.583,230.681 88.985,230.292 89.398 C 228.876 90.898,228.527 91.320,228.420 91.657 C 228.360 91.846,228.258 92.000,228.193 92.000 C 227.994 92.000,227.000 92.969,227.000 93.163 C 227.000 93.263,226.737 93.607,226.417 93.928 C 226.096 94.249,225.833 94.557,225.833 94.614 C 225.833 94.670,225.571 94.971,225.250 95.283 C 224.929 95.594,224.667 95.926,224.667 96.019 C 224.667 96.113,224.404 96.437,224.083 96.739 C 223.762 97.042,223.500 97.346,223.500 97.414 C 223.500 97.483,223.200 97.830,222.833 98.186 C 222.467 98.542,222.167 98.899,222.167 98.980 C 222.167 99.061,221.867 99.427,221.500 99.794 C 221.133 100.161,220.833 100.516,220.833 100.583 C 220.833 100.651,220.533 100.997,220.167 101.353 C 219.800 101.708,219.500 102.063,219.500 102.141 C 219.500 102.219,219.237 102.552,218.917 102.883 C 218.596 103.213,218.333 103.544,218.333 103.618 C 218.333 103.691,218.071 103.971,217.750 104.238 C 217.429 104.506,217.167 104.820,217.167 104.938 C 217.167 105.055,216.904 105.406,216.583 105.717 C 216.262 106.029,216.000 106.330,216.000 106.387 C 216.000 106.445,215.671 106.820,215.268 107.223 C 214.866 107.625,214.490 108.103,214.432 108.284 C 214.375 108.465,214.143 108.712,213.917 108.833 C 213.691 108.954,213.461 109.195,213.406 109.368 C 213.351 109.542,213.049 109.940,212.736 110.253 C 212.423 110.566,212.167 110.937,212.167 111.078 C 212.167 111.218,212.108 111.333,212.037 111.333 C 211.838 111.333,210.833 112.293,210.833 112.483 C 210.833 112.575,210.571 112.906,210.250 113.217 C 209.929 113.529,209.667 113.845,209.667 113.920 C 209.667 113.996,209.329 114.381,208.917 114.776 C 208.504 115.171,208.166 115.552,208.165 115.622 C 208.164 115.692,207.902 116.026,207.582 116.364 C 207.262 116.702,207.000 117.031,207.000 117.096 C 207.000 117.161,206.775 117.447,206.499 117.732 C 205.463 118.804,204.667 119.740,204.667 119.887 C 204.667 119.971,204.367 120.321,204.000 120.667 C 203.633 121.012,203.333 121.362,203.333 121.443 C 203.333 121.525,203.036 121.890,202.672 122.254 C 202.308 122.619,202.008 122.973,202.005 123.042 C 202.002 123.111,201.700 123.458,201.333 123.814 C 200.967 124.170,200.667 124.527,200.667 124.607 C 200.667 124.687,200.404 124.993,200.083 125.288 C 199.663 125.674,199.500 125.964,199.500 126.328 L 199.500 126.833 218.261 126.833 C 236.727 126.833,237.667 126.808,237.667 126.313 C 237.667 126.216,238.004 125.809,238.417 125.408 C 238.829 125.007,239.167 124.605,239.167 124.514 C 239.167 124.424,239.429 124.094,239.750 123.783 C 240.071 123.471,240.333 123.170,240.333 123.114 C 240.333 123.057,240.596 122.749,240.917 122.428 C 241.237 122.107,241.500 121.763,241.500 121.663 C 241.500 121.463,242.497 120.500,242.704 120.500 C 242.775 120.500,242.833 120.394,242.833 120.264 C 242.833 120.135,243.096 119.758,243.417 119.428 C 243.737 119.098,244.000 118.778,244.000 118.718 C 244.000 118.659,244.338 118.286,244.750 117.891 C 245.162 117.496,245.500 117.102,245.500 117.017 C 245.500 116.932,245.762 116.592,246.083 116.261 C 246.404 115.931,246.667 115.613,246.667 115.555 C 246.667 115.498,246.929 115.195,247.250 114.884 C 247.571 114.572,247.833 114.244,247.833 114.153 C 247.833 114.063,248.096 113.749,248.417 113.454 C 248.737 113.160,249.000 112.853,249.000 112.773 C 249.000 112.693,249.300 112.337,249.667 111.981 C 250.033 111.625,250.333 111.275,250.333 111.204 C 250.333 111.132,250.465 110.952,250.625 110.803 C 251.136 110.329,251.667 109.707,251.667 109.582 C 251.667 109.516,251.967 109.179,252.333 108.833 C 252.700 108.488,253.000 108.137,253.000 108.054 C 253.000 107.907,253.797 106.970,254.833 105.899 C 255.108 105.614,255.333 105.333,255.333 105.276 C 255.333 105.144,255.821 104.539,256.208 104.189 C 256.369 104.044,256.500 103.866,256.500 103.793 C 256.500 103.721,256.837 103.338,257.250 102.942 C 257.662 102.547,258.000 102.162,258.000 102.087 C 258.000 102.012,258.262 101.695,258.583 101.384 C 258.904 101.072,259.167 100.750,259.167 100.668 C 259.167 100.587,259.502 100.159,259.913 99.718 C 261.510 98.002,261.667 97.819,261.667 97.666 C 261.667 97.579,261.929 97.269,262.250 96.977 C 262.571 96.685,262.833 96.371,262.833 96.278 C 262.833 96.185,263.171 95.786,263.583 95.391 C 263.996 94.996,264.333 94.608,264.333 94.530 C 264.333 94.451,264.596 94.148,264.917 93.856 C 265.237 93.564,265.500 93.228,265.500 93.108 C 265.500 92.989,265.762 92.672,266.083 92.405 C 266.404 92.137,266.667 91.858,266.667 91.784 C 266.667 91.711,266.929 91.380,267.250 91.050 C 267.571 90.719,267.833 90.377,267.833 90.288 C 267.833 90.200,268.133 89.845,268.500 89.500 C 268.867 89.155,269.167 88.817,269.167 88.750 C 269.167 88.683,269.467 88.327,269.833 87.961 C 270.200 87.594,270.500 87.228,270.500 87.147 C 270.500 87.066,270.800 86.708,271.167 86.353 C 271.533 85.997,271.833 85.650,271.833 85.581 C 271.833 85.512,272.096 85.208,272.417 84.906 C 272.737 84.603,273.000 84.279,273.000 84.186 C 273.000 84.092,273.262 83.761,273.583 83.450 C 273.904 83.138,274.167 82.837,274.167 82.780 C 274.167 82.724,274.429 82.415,274.750 82.094 C 275.071 81.774,275.333 81.429,275.333 81.329 C 275.333 81.136,276.327 80.167,276.526 80.167 C 276.591 80.167,276.694 80.011,276.754 79.821 C 276.814 79.630,277.119 79.211,277.432 78.890 C 277.744 78.568,278.000 78.199,278.000 78.069 C 278.000 77.939,278.058 77.833,278.130 77.833 C 278.325 77.833,279.333 76.876,279.333 76.690 C 279.333 76.601,279.596 76.258,279.917 75.928 C 280.237 75.598,280.500 75.280,280.500 75.222 C 280.500 75.164,280.762 74.862,281.083 74.550 C 281.404 74.239,281.667 73.914,281.667 73.828 C 281.667 73.742,282.004 73.344,282.417 72.943 C 282.829 72.542,283.167 72.154,283.167 72.082 C 283.167 72.010,283.429 71.695,283.750 71.384 C 284.071 71.072,284.333 70.761,284.333 70.692 C 284.333 70.624,284.593 70.308,284.911 69.992 C 285.229 69.676,285.492 69.352,285.495 69.272 C 285.498 69.193,285.800 68.837,286.167 68.481 C 286.533 68.125,286.833 67.775,286.833 67.704 C 286.833 67.632,286.965 67.456,287.125 67.311 C 287.503 66.969,288.000 66.357,288.000 66.232 C 288.000 66.178,288.337 65.815,288.750 65.425 C 289.274 64.930,289.500 64.583,289.500 64.272 C 289.500 63.963,289.272 63.609,288.750 63.109 C 288.337 62.714,288.000 62.335,288.000 62.267 C 288.000 62.200,287.738 61.868,287.418 61.531 C 287.098 61.193,286.836 60.860,286.835 60.791 C 286.834 60.723,286.533 60.375,286.167 60.019 C 285.800 59.663,285.500 59.316,285.500 59.248 C 285.500 59.179,285.237 58.875,284.917 58.573 C 284.596 58.270,284.333 57.946,284.333 57.853 C 284.333 57.759,284.071 57.428,283.750 57.116 C 283.429 56.805,283.167 56.499,283.167 56.437 C 283.167 56.375,282.836 55.994,282.431 55.589 C 282.027 55.184,281.650 54.711,281.595 54.537 C 281.540 54.363,281.309 54.121,281.083 54.000 C 280.857 53.879,280.627 53.638,280.572 53.464 C 280.469 53.141,279.967 52.536,278.708 51.224 C 278.319 50.817,278.000 50.419,278.000 50.340 C 278.000 50.260,277.737 49.925,277.417 49.595 C 277.096 49.264,276.833 48.945,276.833 48.885 C 276.833 48.825,276.496 48.453,276.083 48.058 C 275.671 47.662,275.333 47.261,275.333 47.167 C 275.333 47.072,275.071 46.739,274.750 46.428 C 274.429 46.116,274.167 45.806,274.167 45.739 C 274.167 45.672,273.923 45.375,273.625 45.079 C 273.327 44.783,272.933 44.329,272.750 44.071 C 272.567 43.813,272.285 43.487,272.125 43.347 C 271.965 43.207,271.833 43.025,271.833 42.943 C 271.833 42.861,271.533 42.503,271.167 42.147 C 270.800 41.792,270.500 41.434,270.500 41.353 C 270.500 41.272,270.200 40.906,269.833 40.539 C 269.467 40.173,269.167 39.826,269.167 39.769 C 269.167 39.713,268.885 39.385,268.540 39.041 C 268.195 38.698,267.812 38.219,267.688 37.977 C 267.564 37.735,267.284 37.441,267.065 37.324 C 266.846 37.206,266.667 37.014,266.667 36.897 C 266.667 36.779,266.404 36.428,266.083 36.116 C 265.762 35.805,265.500 35.476,265.500 35.385 C 265.500 35.294,265.237 34.981,264.917 34.689 C 264.596 34.397,264.333 34.084,264.333 33.993 C 264.333 33.902,263.996 33.504,263.583 33.109 C 263.171 32.714,262.833 32.329,262.833 32.254 C 262.833 32.179,262.571 31.862,262.250 31.550 C 261.929 31.239,261.667 30.906,261.667 30.811 C 261.667 30.716,261.404 30.406,261.083 30.122 C 260.762 29.838,260.500 29.535,260.500 29.450 C 260.500 29.364,260.200 29.003,259.833 28.647 C 259.467 28.292,259.167 27.952,259.167 27.892 C 259.167 27.832,258.904 27.529,258.583 27.217 C 258.262 26.906,258.000 26.566,258.000 26.463 C 258.000 26.360,257.662 25.953,257.250 25.558 C 256.837 25.162,256.500 24.779,256.500 24.707 C 256.500 24.634,256.369 24.456,256.208 24.311 C 255.799 23.942,255.333 23.353,255.333 23.205 C 255.333 23.137,255.071 22.863,254.750 22.595 C 254.429 22.328,254.167 22.043,254.167 21.963 C 254.167 21.882,253.904 21.547,253.583 21.216 C 253.262 20.886,253.000 20.552,253.000 20.474 C 253.000 20.397,252.700 20.042,252.333 19.686 C 251.967 19.330,251.667 18.981,251.667 18.910 C 251.667 18.839,251.367 18.487,251.000 18.128 C 250.633 17.768,250.333 17.405,250.333 17.320 C 250.333 17.236,250.033 16.875,249.667 16.519 C 249.300 16.163,249.000 15.816,249.000 15.748 C 249.000 15.679,248.737 15.375,248.417 15.073 C 248.096 14.770,247.833 14.446,247.833 14.353 C 247.833 14.259,247.571 13.928,247.250 13.616 C 246.929 13.305,246.667 13.003,246.667 12.947 C 246.667 12.835,246.028 12.103,244.792 10.799 C 244.356 10.340,244.000 9.899,244.000 9.820 C 244.000 9.678,243.555 9.159,242.208 7.731 C 241.819 7.318,241.500 6.908,241.500 6.821 C 241.500 6.733,241.237 6.406,240.917 6.094 C 240.596 5.783,240.333 5.473,240.333 5.406 C 240.333 5.339,240.071 5.029,239.750 4.717 C 239.429 4.406,239.167 4.083,239.167 4.000 C 239.167 3.917,238.829 3.516,238.417 3.109 C 238.004 2.703,237.667 2.303,237.667 2.222 C 237.667 1.479,238.218 1.500,218.248 1.500 L 199.500 1.500 199.500 2.095 M257.833 1.986 C 257.833 2.485,258.068 2.827,259.292 4.110 C 259.681 4.519,260.000 4.920,260.000 5.002 C 260.000 5.084,260.262 5.406,260.583 5.717 C 260.904 6.029,261.167 6.345,261.167 6.420 C 261.167 6.496,261.504 6.881,261.917 7.276 C 262.329 7.671,262.667 8.059,262.667 8.138 C 262.667 8.217,262.929 8.552,263.250 8.883 C 263.571 9.213,263.833 9.536,263.833 9.600 C 263.833 9.664,264.077 9.959,264.375 10.255 C 264.673 10.551,265.067 11.004,265.250 11.262 C 265.433 11.520,265.715 11.846,265.875 11.986 C 266.035 12.126,266.167 12.308,266.167 12.390 C 266.167 12.472,266.455 12.811,266.807 13.144 C 267.159 13.477,267.478 13.833,267.515 13.936 C 267.605 14.180,268.573 15.330,269.458 16.243 C 269.848 16.645,270.167 17.047,270.167 17.136 C 270.167 17.226,270.429 17.529,270.750 17.811 C 271.071 18.093,271.333 18.397,271.333 18.487 C 271.333 18.577,271.596 18.906,271.917 19.217 C 272.237 19.529,272.500 19.844,272.500 19.917 C 272.500 19.990,272.762 20.305,273.083 20.616 C 273.404 20.928,273.667 21.250,273.667 21.332 C 273.667 21.413,273.985 21.822,274.375 22.241 C 276.011 23.996,276.333 24.385,276.333 24.603 C 276.333 24.730,276.392 24.833,276.463 24.833 C 276.670 24.833,277.667 25.796,277.667 25.996 C 277.667 26.096,277.929 26.440,278.250 26.761 C 278.571 27.082,278.833 27.391,278.833 27.447 C 278.833 27.503,279.096 27.805,279.417 28.116 C 279.737 28.428,280.000 28.779,280.000 28.896 C 280.000 29.013,280.262 29.328,280.583 29.595 C 280.904 29.863,281.167 30.144,281.167 30.221 C 281.167 30.297,281.504 30.697,281.917 31.110 C 282.329 31.522,282.667 31.948,282.667 32.056 C 282.667 32.164,282.929 32.471,283.250 32.738 C 283.571 33.006,283.833 33.290,283.833 33.371 C 283.833 33.451,284.096 33.787,284.417 34.117 C 284.737 34.448,285.000 34.781,285.000 34.859 C 285.000 34.937,285.300 35.292,285.667 35.647 C 286.033 36.003,286.333 36.365,286.333 36.452 C 286.333 36.538,286.596 36.828,286.917 37.095 C 287.237 37.363,287.500 37.666,287.500 37.769 C 287.500 37.873,287.856 38.339,288.292 38.805 C 289.811 40.432,290.167 40.845,290.167 40.978 C 290.167 41.052,290.429 41.352,290.750 41.644 C 291.071 41.936,291.333 42.246,291.333 42.333 C 291.333 42.487,291.702 42.919,293.125 44.430 C 293.515 44.844,293.833 45.251,293.833 45.335 C 293.833 45.419,294.133 45.784,294.500 46.147 C 294.867 46.510,295.167 46.859,295.167 46.923 C 295.167 46.987,295.467 47.330,295.833 47.686 C 296.200 48.042,296.501 48.389,296.501 48.458 C 296.502 48.527,296.765 48.860,297.085 49.197 C 297.405 49.535,297.667 49.864,297.667 49.929 C 297.667 49.994,297.892 50.281,298.168 50.565 C 299.118 51.548,299.991 52.584,299.996 52.733 C 299.998 52.816,300.337 53.202,300.750 53.592 C 301.162 53.982,301.500 54.344,301.500 54.398 C 301.500 54.523,301.997 55.136,302.375 55.478 C 302.535 55.622,302.667 55.799,302.667 55.871 C 302.667 55.942,302.967 56.292,303.333 56.647 C 303.700 57.003,304.000 57.351,304.000 57.420 C 304.000 57.545,304.897 58.607,305.841 59.601 C 306.112 59.886,306.333 60.178,306.333 60.250 C 306.333 60.322,306.671 60.708,307.083 61.109 C 307.496 61.510,307.833 61.909,307.833 61.994 C 307.833 62.080,308.096 62.406,308.417 62.717 C 308.737 63.029,309.000 63.353,309.000 63.438 C 309.000 63.523,309.148 63.720,309.330 63.875 C 309.649 64.149,309.634 64.667,309.307 64.667 C 309.220 64.667,309.075 64.881,308.983 65.143 C 308.892 65.405,308.635 65.717,308.411 65.836 C 308.188 65.956,307.960 66.196,307.905 66.370 C 307.850 66.544,307.473 67.018,307.069 67.422 C 306.664 67.827,306.333 68.209,306.333 68.270 C 306.333 68.332,306.071 68.638,305.750 68.950 C 305.429 69.261,305.167 69.594,305.167 69.689 C 305.167 69.784,304.904 70.094,304.583 70.378 C 304.262 70.662,304.000 70.965,304.000 71.050 C 304.000 71.136,303.700 71.497,303.333 71.853 C 302.967 72.208,302.666 72.556,302.665 72.625 C 302.664 72.694,302.402 73.026,302.082 73.364 C 301.762 73.702,301.500 74.033,301.500 74.101 C 301.500 74.168,301.162 74.547,300.750 74.942 C 300.337 75.338,300.000 75.721,300.000 75.793 C 300.000 75.866,299.869 76.044,299.708 76.189 C 299.287 76.569,298.833 77.149,298.833 77.306 C 298.833 77.381,298.571 77.661,298.250 77.928 C 297.929 78.196,297.667 78.471,297.667 78.539 C 297.667 78.686,297.201 79.275,296.792 79.644 C 296.631 79.789,296.500 79.966,296.500 80.037 C 296.500 80.109,296.200 80.458,295.833 80.814 C 295.467 81.170,295.167 81.519,295.167 81.590 C 295.167 81.661,294.867 82.013,294.500 82.372 C 294.133 82.732,293.833 83.095,293.833 83.180 C 293.833 83.264,293.533 83.625,293.167 83.981 C 292.800 84.337,292.500 84.698,292.500 84.783 C 292.500 84.869,292.237 85.171,291.917 85.455 C 291.596 85.739,291.333 86.049,291.333 86.144 C 291.333 86.239,291.071 86.572,290.750 86.884 C 290.429 87.195,290.167 87.498,290.167 87.555 C 290.167 87.613,289.904 87.931,289.583 88.261 C 289.262 88.592,289.000 88.935,289.000 89.024 C 289.000 89.203,287.995 90.167,287.807 90.167 C 287.742 90.167,287.637 90.335,287.572 90.542 C 287.508 90.748,287.243 91.142,286.983 91.417 C 286.724 91.692,286.172 92.277,285.756 92.718 C 285.340 93.159,285.000 93.592,285.000 93.679 C 285.000 93.767,284.737 94.094,284.417 94.406 C 284.096 94.717,283.833 95.027,283.833 95.094 C 283.833 95.161,283.571 95.471,283.250 95.783 C 282.929 96.094,282.667 96.428,282.667 96.525 C 282.667 96.621,282.329 97.018,281.917 97.408 C 281.504 97.798,281.167 98.190,281.167 98.279 C 281.167 98.369,280.904 98.661,280.583 98.928 C 280.262 99.196,280.000 99.505,280.000 99.616 C 280.000 99.727,279.737 100.072,279.417 100.384 C 279.096 100.695,278.833 101.005,278.833 101.072 C 278.833 101.140,278.571 101.449,278.250 101.761 C 277.929 102.073,277.667 102.399,277.667 102.487 C 277.667 102.575,277.348 102.983,276.958 103.395 C 275.454 104.982,275.000 105.512,275.000 105.679 C 275.000 105.873,273.998 106.833,273.796 106.833 C 273.725 106.833,273.667 106.942,273.667 107.075 C 273.667 107.208,273.404 107.572,273.083 107.884 C 272.762 108.195,272.500 108.510,272.500 108.583 C 272.500 108.656,272.237 108.971,271.917 109.283 C 271.596 109.594,271.333 109.919,271.333 110.003 C 271.333 110.088,271.106 110.403,270.827 110.704 C 268.976 112.703,268.667 113.059,268.667 113.193 C 268.667 113.276,268.404 113.574,268.083 113.856 C 267.762 114.137,267.500 114.444,267.500 114.537 C 267.500 114.630,267.200 114.997,266.833 115.353 C 266.467 115.708,266.167 116.058,266.167 116.129 C 266.167 116.201,266.035 116.378,265.875 116.522 C 265.488 116.872,265.000 117.478,265.000 117.609 C 265.000 117.667,264.775 117.947,264.499 118.232 C 263.602 119.159,262.676 120.247,262.671 120.378 C 262.669 120.448,262.329 120.829,261.917 121.224 C 261.504 121.619,261.167 121.992,261.167 122.053 C 261.167 122.188,260.685 122.789,260.292 123.144 C 260.131 123.289,260.000 123.466,260.000 123.537 C 260.000 123.609,259.700 123.958,259.333 124.314 C 258.967 124.670,258.667 125.017,258.667 125.086 C 258.667 125.155,258.479 125.386,258.250 125.598 C 258.016 125.815,257.833 126.170,257.833 126.409 L 257.833 126.833 276.668 126.833 L 295.502 126.833 296.251 126.074 C 296.663 125.656,297.000 125.252,297.000 125.176 C 297.000 125.101,297.300 124.739,297.667 124.373 C 298.033 124.006,298.333 123.662,298.333 123.608 C 298.333 123.555,298.596 123.249,298.917 122.928 C 299.237 122.607,299.500 122.271,299.500 122.182 C 299.500 122.093,299.840 121.659,300.256 121.218 C 300.672 120.777,301.224 120.192,301.483 119.917 C 301.743 119.642,302.004 119.260,302.064 119.068 C 302.123 118.877,302.357 118.621,302.583 118.500 C 302.809 118.379,303.040 118.137,303.095 117.963 C 303.150 117.789,303.527 117.316,303.931 116.911 C 304.336 116.506,304.667 116.125,304.667 116.063 C 304.667 116.001,304.929 115.695,305.250 115.384 C 305.571 115.072,305.833 114.739,305.833 114.644 C 305.833 114.549,306.096 114.239,306.417 113.955 C 306.737 113.671,307.000 113.369,307.000 113.283 C 307.000 113.198,307.300 112.837,307.667 112.481 C 308.033 112.125,308.334 111.777,308.335 111.709 C 308.336 111.640,308.598 111.307,308.918 110.969 C 309.238 110.632,309.500 110.300,309.500 110.233 C 309.500 110.165,309.837 109.786,310.250 109.391 C 310.662 108.996,311.000 108.613,311.000 108.540 C 311.000 108.467,311.131 108.289,311.292 108.144 C 311.701 107.775,312.167 107.186,312.167 107.039 C 312.167 106.971,312.429 106.696,312.750 106.428 C 313.071 106.161,313.333 105.881,313.333 105.806 C 313.333 105.649,313.787 105.069,314.208 104.689 C 314.369 104.544,314.500 104.368,314.500 104.296 C 314.500 104.225,314.800 103.875,315.167 103.519 C 315.533 103.163,315.833 102.814,315.833 102.744 C 315.833 102.673,316.133 102.321,316.500 101.961 C 316.867 101.602,317.167 101.238,317.167 101.154 C 317.167 101.069,317.467 100.708,317.833 100.353 C 318.200 99.997,318.500 99.636,318.500 99.550 C 318.500 99.465,318.762 99.162,319.083 98.878 C 319.404 98.594,319.667 98.284,319.667 98.189 C 319.667 98.094,319.929 97.761,320.250 97.450 C 320.571 97.138,320.833 96.836,320.833 96.778 C 320.833 96.720,321.096 96.402,321.417 96.072 C 321.737 95.742,322.000 95.399,322.000 95.310 C 322.000 95.130,323.005 94.167,323.193 94.167 C 323.258 94.167,323.363 93.998,323.428 93.792 C 323.492 93.585,323.757 93.192,324.017 92.917 C 324.276 92.642,324.828 92.056,325.244 91.615 C 325.660 91.174,326.000 90.741,326.000 90.651 C 326.000 90.562,326.262 90.226,326.583 89.906 C 326.904 89.585,327.167 89.276,327.167 89.220 C 327.167 89.163,327.429 88.862,327.750 88.550 C 328.071 88.239,328.333 87.873,328.333 87.737 C 328.333 87.601,328.446 87.446,328.583 87.394 C 328.986 87.239,328.875 86.879,328.250 86.311 C 327.929 86.019,327.667 85.691,327.667 85.583 C 327.667 85.475,327.404 85.148,327.083 84.856 C 326.762 84.564,326.500 84.252,326.500 84.162 C 326.500 84.073,326.201 83.729,325.835 83.398 C 325.469 83.068,325.206 82.738,325.250 82.667 C 325.294 82.595,325.031 82.266,324.665 81.935 C 324.299 81.605,324.000 81.286,324.000 81.227 C 324.000 81.169,323.701 80.775,323.336 80.352 C 322.971 79.929,322.413 79.283,322.097 78.917 C 321.782 78.550,321.218 77.904,320.845 77.481 C 320.472 77.059,320.167 76.646,320.167 76.564 C 320.167 76.482,319.904 76.196,319.583 75.928 C 319.262 75.661,319.000 75.369,319.000 75.280 C 319.000 75.191,318.681 74.766,318.292 74.336 C 317.902 73.906,317.321 73.236,317.000 72.847 C 316.679 72.457,316.135 71.818,315.792 71.426 C 315.448 71.034,315.167 70.659,315.167 70.594 C 315.167 70.529,314.867 70.206,314.500 69.877 C 314.133 69.548,313.833 69.186,313.833 69.073 C 313.833 68.960,313.571 68.637,313.250 68.356 C 312.929 68.074,312.667 67.781,312.667 67.704 C 312.667 67.628,312.404 67.311,312.083 67.000 C 311.762 66.689,311.500 66.343,311.500 66.232 C 311.500 66.121,311.292 65.854,311.038 65.640 C 309.819 64.612,309.774 64.227,310.750 63.184 C 311.162 62.743,311.500 62.323,311.500 62.251 C 311.500 62.178,311.721 61.886,311.992 61.601 C 312.936 60.608,313.833 59.545,313.833 59.420 C 313.833 59.351,314.133 59.012,314.500 58.667 C 314.867 58.321,315.167 57.982,315.167 57.913 C 315.167 57.844,315.472 57.441,315.846 57.019 C 316.219 56.596,316.745 55.987,317.013 55.667 C 318.788 53.548,319.236 53.029,319.675 52.583 C 319.945 52.308,320.167 52.019,320.167 51.941 C 320.167 51.863,320.763 51.113,321.492 50.274 C 322.897 48.657,323.307 48.178,324.648 46.583 C 325.111 46.033,325.716 45.350,325.995 45.065 C 326.273 44.780,326.500 44.489,326.500 44.417 C 326.500 44.346,326.803 43.941,327.173 43.519 C 327.543 43.096,328.068 42.495,328.340 42.183 C 328.889 41.553,328.957 41.250,328.583 41.106 C 328.446 41.054,328.333 40.899,328.333 40.763 C 328.333 40.627,328.071 40.261,327.750 39.950 C 327.429 39.638,327.167 39.336,327.167 39.280 C 327.167 39.176,326.699 38.642,325.375 37.237 C 324.985 36.823,324.667 36.417,324.667 36.334 C 324.667 36.251,324.404 35.928,324.083 35.616 C 323.762 35.305,323.500 34.988,323.500 34.913 C 323.500 34.838,323.162 34.453,322.750 34.058 C 322.337 33.662,322.000 33.270,322.000 33.186 C 322.000 33.102,321.737 32.771,321.417 32.450 C 321.096 32.129,320.833 31.810,320.833 31.742 C 320.833 31.673,320.571 31.362,320.250 31.050 C 319.929 30.739,319.667 30.388,319.667 30.270 C 319.667 30.153,319.487 29.960,319.268 29.843 C 319.049 29.726,318.769 29.432,318.645 29.190 C 318.521 28.948,318.138 28.469,317.793 28.125 C 317.449 27.782,317.167 27.442,317.167 27.371 C 317.167 27.299,317.035 27.119,316.875 26.970 C 316.364 26.495,315.833 25.874,315.833 25.749 C 315.833 25.682,315.533 25.345,315.167 25.000 C 314.800 24.655,314.500 24.305,314.500 24.223 C 314.500 24.141,314.369 23.959,314.208 23.819 C 314.048 23.679,313.767 23.354,313.583 23.095 C 313.400 22.837,313.006 22.384,312.708 22.088 C 312.410 21.792,312.167 21.496,312.167 21.430 C 312.167 21.365,311.905 21.035,311.585 20.697 C 311.265 20.360,311.002 20.026,311.001 19.956 C 311.001 19.885,310.662 19.504,310.250 19.109 C 309.837 18.714,309.500 18.341,309.500 18.282 C 309.500 18.222,309.237 17.902,308.917 17.572 C 308.596 17.242,308.333 16.906,308.333 16.827 C 308.333 16.747,308.015 16.344,307.625 15.930 C 306.186 14.402,305.860 14.012,305.761 13.703 C 305.706 13.529,305.476 13.288,305.250 13.167 C 305.024 13.046,304.792 12.798,304.734 12.617 C 304.677 12.436,304.301 11.958,303.898 11.556 C 303.496 11.154,303.167 10.778,303.167 10.721 C 303.167 10.664,302.904 10.362,302.583 10.050 C 302.262 9.739,302.000 9.388,302.000 9.271 C 302.000 9.154,301.737 8.839,301.417 8.572 C 301.096 8.304,300.833 8.020,300.833 7.940 C 300.833 7.860,300.533 7.503,300.167 7.147 C 299.800 6.792,299.500 6.437,299.500 6.359 C 299.500 6.281,299.237 5.948,298.917 5.617 C 298.596 5.287,298.333 4.966,298.333 4.905 C 298.333 4.844,298.033 4.494,297.667 4.127 C 297.300 3.761,297.000 3.395,297.000 3.314 C 297.000 3.233,296.700 2.875,296.333 2.519 C 295.967 2.163,295.667 1.789,295.667 1.686 C 295.667 1.550,290.571 1.500,276.750 1.500 L 257.833 1.500 257.833 1.986 M27.500 81.667 C 27.500 81.758,27.335 81.833,27.134 81.833 C 26.616 81.833,25.512 82.642,25.396 83.108 C 25.341 83.324,25.230 83.500,25.149 83.500 C 25.067 83.500,25.000 84.175,25.000 85.000 C 25.000 85.889,25.068 86.500,25.167 86.500 C 25.258 86.500,25.333 86.609,25.333 86.741 C 25.333 87.273,26.549 88.210,27.502 88.414 C 27.822 88.482,28.158 88.595,28.250 88.664 C 28.342 88.733,28.814 88.840,29.301 88.901 C 31.948 89.238,32.177 91.000,29.573 91.000 C 28.364 91.000,27.667 90.534,27.667 89.726 C 27.667 89.344,27.627 89.333,26.250 89.333 L 24.833 89.333 24.833 90.072 C 24.833 91.433,25.424 92.270,26.883 92.977 C 27.813 93.428,32.313 93.480,32.458 93.042 C 32.497 92.927,32.633 92.833,32.761 92.833 C 33.084 92.833,34.167 91.753,34.167 91.431 C 34.167 91.285,34.242 91.167,34.333 91.167 C 35.017 91.167,34.222 87.404,33.498 87.215 C 33.329 87.170,33.149 87.029,33.100 86.900 C 33.051 86.772,32.858 86.667,32.672 86.667 C 32.486 86.667,32.333 86.597,32.333 86.512 C 32.333 86.427,31.921 86.306,31.417 86.243 C 30.912 86.180,30.500 86.072,30.500 86.004 C 30.500 85.936,30.126 85.835,29.668 85.781 C 27.912 85.573,27.490 84.126,29.158 84.032 C 30.476 83.957,30.801 84.079,30.964 84.710 L 31.104 85.250 32.651 85.298 L 34.198 85.346 34.087 84.631 C 33.865 83.202,33.020 82.096,31.996 81.891 C 31.723 81.836,31.500 81.726,31.500 81.646 C 31.500 81.566,30.600 81.500,29.500 81.500 C 28.278 81.500,27.500 81.565,27.500 81.667 M4.167 87.500 L 4.167 93.167 5.667 93.167 L 7.167 93.167 7.167 91.000 L 7.167 88.833 9.167 88.833 L 11.167 88.833 11.167 91.000 L 11.167 93.167 12.667 93.167 L 14.167 93.167 14.167 87.500 L 14.167 81.833 12.667 81.833 L 11.167 81.833 11.167 84.000 L 11.167 86.167 9.167 86.167 L 7.167 86.167 7.167 84.000 L 7.167 81.833 5.667 81.833 L 4.167 81.833 4.167 87.500 M15.333 83.007 L 15.333 84.180 16.708 84.132 L 18.083 84.083 18.133 82.958 L 18.182 81.833 16.758 81.833 L 15.333 81.833 15.333 83.007 M68.333 83.511 C 68.333 85.190,68.028 85.647,67.478 84.792 C 67.119 84.232,64.187 84.763,63.471 85.517 C 61.932 87.139,62.297 92.833,63.940 92.833 C 64.049 92.833,64.170 92.927,64.208 93.042 C 64.258 93.191,64.787 93.250,66.083 93.250 C 67.380 93.250,67.908 93.191,67.958 93.042 C 68.056 92.750,68.333 92.781,68.333 93.083 C 68.333 93.286,68.602 93.333,69.750 93.333 L 71.167 93.333 71.167 87.583 L 71.167 81.833 69.750 81.833 L 68.333 81.833 68.333 83.511 M87.333 87.500 L 87.333 93.167 91.333 93.167 L 95.333 93.167 95.333 91.833 L 95.333 90.500 92.833 90.500 L 90.333 90.500 90.333 86.167 L 90.333 81.833 88.833 81.833 L 87.333 81.833 87.333 87.500 M96.034 82.958 L 96.083 84.083 97.162 84.134 C 98.940 84.217,99.000 84.177,99.000 82.913 L 99.000 81.833 97.492 81.833 L 95.985 81.833 96.034 82.958 M109.167 87.500 L 109.167 93.167 110.583 93.167 L 112.000 93.167 112.000 90.442 C 112.000 87.272,112.070 87.105,113.358 87.198 L 114.083 87.250 114.129 90.208 L 114.174 93.167 115.671 93.167 L 117.167 93.167 117.167 89.831 C 117.167 87.473,117.106 86.386,116.958 86.123 C 116.622 85.520,116.125 85.000,115.888 85.000 C 115.766 85.000,115.667 84.925,115.667 84.833 C 115.667 84.627,112.884 84.606,112.806 84.811 C 112.775 84.891,112.581 85.008,112.375 85.073 C 112.003 85.188,112.000 85.175,112.000 83.511 L 112.000 81.833 110.583 81.833 L 109.167 81.833 109.167 87.500 M145.167 83.007 L 145.167 84.180 146.542 84.132 L 147.917 84.083 147.966 82.958 L 148.015 81.833 146.591 81.833 L 145.167 81.833 145.167 83.007 M158.167 87.500 L 158.167 93.180 159.625 93.131 L 161.083 93.083 161.167 90.333 C 161.262 87.197,161.272 87.167,162.227 87.167 C 163.313 87.167,163.333 87.225,163.333 90.367 L 163.333 93.167 164.750 93.167 L 166.167 93.167 166.167 89.719 C 166.167 85.955,166.011 85.312,165.042 85.061 C 164.835 85.008,164.667 84.897,164.667 84.815 C 164.667 84.734,164.029 84.667,163.250 84.667 C 162.471 84.667,161.833 84.733,161.833 84.814 C 161.833 84.895,161.686 85.000,161.506 85.047 C 161.199 85.127,161.175 85.030,161.131 83.525 L 161.083 81.917 159.625 81.869 L 158.167 81.820 158.167 87.500 M118.333 83.667 L 118.333 85.000 117.833 85.000 C 117.338 85.000,117.333 85.009,117.333 85.917 C 117.333 86.815,117.343 86.833,117.813 86.833 L 118.293 86.833 118.362 89.407 C 118.435 92.119,118.691 92.833,119.592 92.833 C 119.725 92.833,119.833 92.908,119.833 93.000 C 119.833 93.098,120.417 93.167,121.250 93.167 L 122.667 93.167 122.667 91.917 L 122.667 90.667 122.155 90.667 C 121.296 90.667,121.167 90.384,121.167 88.512 L 121.167 86.833 121.917 86.833 C 122.648 86.833,122.667 86.820,122.686 86.292 C 122.699 85.936,122.733 85.864,122.787 86.083 C 122.832 86.267,122.929 86.492,123.003 86.583 C 123.077 86.675,123.189 87.031,123.254 87.375 C 123.318 87.719,123.429 88.000,123.500 88.000 C 123.571 88.000,123.679 88.337,123.741 88.750 C 123.803 89.162,123.915 89.500,123.989 89.500 C 124.063 89.500,124.174 89.812,124.235 90.192 C 124.296 90.573,124.399 90.967,124.464 91.067 C 124.530 91.168,124.696 91.662,124.834 92.167 L 125.084 93.083 126.625 93.131 C 127.922 93.172,128.167 93.138,128.167 92.923 C 128.167 92.782,128.235 92.667,128.318 92.667 C 128.401 92.667,128.520 92.292,128.583 91.834 C 128.646 91.375,128.762 90.961,128.839 90.913 C 128.917 90.865,129.031 90.489,129.093 90.077 C 129.243 89.076,129.444 89.004,129.672 89.870 C 129.775 90.262,129.966 90.905,130.096 91.297 C 130.227 91.690,130.333 92.159,130.333 92.339 C 130.333 92.519,130.408 92.667,130.500 92.667 C 130.592 92.667,130.667 92.779,130.667 92.917 C 130.667 93.121,130.952 93.167,132.231 93.167 L 133.795 93.167 133.907 92.421 C 133.969 92.010,134.087 91.633,134.169 91.582 C 134.251 91.531,134.407 91.042,134.514 90.495 C 134.622 89.948,134.771 89.500,134.845 89.500 C 134.919 89.500,135.030 89.162,135.092 88.750 C 135.154 88.337,135.263 88.000,135.334 88.000 C 135.405 88.000,135.515 87.719,135.580 87.375 C 135.644 87.031,135.761 86.671,135.841 86.575 C 135.920 86.479,136.036 86.085,136.097 85.700 L 136.209 85.000 134.620 85.000 L 133.031 85.000 132.917 85.833 C 132.854 86.292,132.743 86.667,132.671 86.667 C 132.599 86.667,132.442 87.267,132.323 88.000 C 132.069 89.565,131.915 89.679,131.758 88.419 C 131.695 87.917,131.576 87.463,131.493 87.412 C 131.411 87.361,131.294 86.948,131.233 86.493 C 131.173 86.039,131.058 85.667,130.979 85.667 C 130.899 85.667,130.833 85.517,130.833 85.333 C 130.833 85.026,130.722 85.000,129.417 85.000 C 128.111 85.000,128.000 85.026,128.000 85.333 C 128.000 85.517,127.930 85.667,127.845 85.667 C 127.760 85.667,127.600 86.229,127.489 86.917 C 127.378 87.604,127.223 88.167,127.144 88.167 C 127.065 88.167,127.000 88.373,126.999 88.625 L 126.998 89.083 126.741 88.591 C 126.600 88.320,126.440 87.776,126.386 87.382 C 126.332 86.989,126.230 86.667,126.160 86.667 C 126.089 86.667,125.980 86.292,125.917 85.833 L 125.802 85.000 123.484 85.000 L 121.167 85.000 121.167 83.667 L 121.167 82.333 119.750 82.333 L 118.333 82.333 118.333 83.667 M167.333 83.667 L 167.333 85.000 166.833 85.000 C 166.338 85.000,166.333 85.009,166.333 85.917 C 166.333 86.824,166.338 86.833,166.833 86.833 L 167.333 86.833 167.333 89.000 C 167.333 90.333,167.397 91.167,167.500 91.167 C 167.592 91.167,167.667 91.378,167.667 91.635 C 167.667 92.144,168.198 92.833,168.590 92.833 C 168.724 92.833,168.833 92.908,168.833 93.000 C 168.833 93.098,169.417 93.167,170.250 93.167 L 171.667 93.167 171.667 91.917 L 171.667 90.667 171.101 90.667 C 170.381 90.667,170.333 90.531,170.333 88.486 L 170.333 86.833 171.000 86.833 L 171.667 86.833 171.667 85.917 L 171.667 85.000 171.000 85.000 L 170.333 85.000 170.333 83.667 L 170.333 82.333 168.833 82.333 L 167.333 82.333 167.333 83.667 M78.000 85.000 L 78.000 86.333 76.667 86.333 L 75.333 86.333 75.333 87.583 L 75.333 88.833 76.667 88.833 L 78.000 88.833 78.000 90.000 L 78.000 91.167 79.167 91.167 L 80.333 91.167 80.333 90.007 L 80.333 88.848 81.542 88.799 L 82.750 88.750 82.799 87.542 L 82.848 86.333 81.591 86.333 L 80.333 86.333 80.333 85.000 L 80.333 83.667 79.167 83.667 L 78.000 83.667 78.000 85.000 M102.500 84.658 C 100.606 84.975,99.667 86.391,99.667 88.928 C 99.667 89.865,99.734 90.500,99.833 90.500 C 99.925 90.500,100.000 90.639,100.000 90.808 C 100.000 91.286,101.031 92.459,101.674 92.712 C 101.808 92.764,101.476 92.813,100.938 92.820 L 99.959 92.833 100.036 93.765 C 100.079 94.278,100.187 94.747,100.277 94.807 C 100.367 94.867,100.489 95.048,100.549 95.208 C 100.608 95.369,100.763 95.500,100.894 95.500 C 101.024 95.500,101.174 95.612,101.227 95.750 C 101.280 95.888,101.513 96.000,101.745 96.000 C 101.977 96.000,102.167 96.075,102.167 96.167 C 102.167 96.451,105.367 96.371,106.105 96.068 C 106.810 95.778,107.833 94.888,107.833 94.565 C 107.833 94.453,107.927 94.330,108.042 94.292 C 108.200 94.239,108.263 93.079,108.305 89.445 L 108.360 84.667 106.930 84.667 C 105.770 84.667,105.500 84.714,105.500 84.917 C 105.500 85.226,105.263 85.239,104.968 84.945 C 104.705 84.681,103.322 84.520,102.500 84.658 M151.458 84.622 C 151.115 84.657,150.833 84.749,150.833 84.825 C 150.833 84.902,150.652 85.009,150.431 85.065 C 150.210 85.120,149.778 85.482,149.473 85.868 L 148.917 86.570 148.917 88.755 C 148.917 90.582,148.963 90.987,149.197 91.221 C 149.352 91.376,149.526 91.651,149.584 91.834 C 149.641 92.017,149.871 92.212,150.094 92.268 C 150.317 92.324,150.500 92.431,150.500 92.506 C 150.500 92.581,150.631 92.677,150.792 92.718 C 150.952 92.760,150.605 92.803,150.021 92.814 L 148.959 92.833 149.037 93.783 C 149.081 94.306,149.203 94.762,149.308 94.797 C 149.414 94.832,149.500 94.970,149.500 95.102 C 149.500 95.235,149.631 95.393,149.792 95.454 C 149.952 95.515,150.182 95.663,150.304 95.782 C 150.425 95.902,150.668 96.000,150.845 96.000 C 151.022 96.000,151.167 96.075,151.167 96.167 C 151.167 96.376,154.776 96.394,154.905 96.185 C 154.956 96.104,155.195 95.987,155.438 95.926 C 156.056 95.771,156.995 94.750,157.103 94.116 C 157.153 93.823,157.265 93.433,157.351 93.250 C 157.441 93.060,157.489 91.157,157.463 88.833 L 157.417 84.750 155.958 84.702 C 154.749 84.662,154.500 84.697,154.500 84.905 C 154.500 85.149,154.031 85.095,153.833 84.828 C 153.718 84.673,152.217 84.542,151.458 84.622 M15.333 88.750 L 15.333 92.833 16.750 92.833 L 18.167 92.833 18.167 88.750 L 18.167 84.667 16.750 84.667 L 15.333 84.667 15.333 88.750 M38.966 84.853 C 38.924 84.977,38.306 85.030,37.119 85.013 L 35.333 84.987 35.333 90.660 L 35.333 96.333 36.833 96.333 L 38.333 96.333 38.333 94.571 C 38.333 92.970,38.357 92.833,38.595 93.071 C 38.739 93.215,39.099 93.333,39.395 93.333 C 39.691 93.333,40.020 93.420,40.126 93.526 C 40.259 93.659,40.386 93.666,40.535 93.549 C 40.653 93.455,41.065 93.338,41.449 93.290 C 42.138 93.202,43.333 92.303,43.333 91.872 C 43.333 91.774,43.410 91.669,43.503 91.638 C 43.596 91.607,43.715 91.169,43.766 90.666 C 43.818 90.162,43.941 89.581,44.041 89.375 C 44.173 89.104,44.172 88.896,44.041 88.625 C 43.940 88.419,43.812 87.849,43.755 87.360 C 43.698 86.870,43.561 86.360,43.451 86.225 C 42.810 85.446,42.314 85.000,42.089 85.000 C 41.948 85.000,41.833 84.925,41.833 84.833 C 41.833 84.596,39.045 84.615,38.966 84.853 M46.619 85.022 C 45.152 85.765,44.669 86.751,44.669 89.000 C 44.669 91.005,45.332 92.667,46.132 92.667 C 46.233 92.667,46.390 92.797,46.479 92.957 C 46.735 93.414,50.210 93.491,51.011 93.057 C 51.760 92.651,52.500 91.993,52.500 91.734 C 52.500 91.621,52.581 91.501,52.680 91.468 C 52.779 91.435,52.872 91.147,52.888 90.829 L 52.917 90.250 51.542 90.202 C 50.458 90.163,50.167 90.202,50.167 90.384 C 50.167 91.141,48.468 91.468,47.833 90.833 C 47.650 90.650,47.500 90.431,47.500 90.347 C 47.500 90.263,47.454 90.075,47.399 89.930 C 47.309 89.696,47.619 89.667,50.170 89.667 L 53.042 89.667 52.968 88.269 C 52.915 87.254,52.818 86.794,52.614 86.590 C 52.460 86.436,52.333 86.236,52.333 86.147 C 52.333 85.860,51.442 85.147,50.963 85.051 C 50.708 85.000,50.500 84.893,50.500 84.813 C 50.500 84.510,47.288 84.684,46.619 85.022 M56.000 84.820 C 56.000 84.904,55.776 85.023,55.501 85.083 C 54.923 85.210,54.026 86.205,53.887 86.875 C 53.835 87.127,53.726 87.333,53.646 87.333 C 53.566 87.333,53.500 88.083,53.500 89.000 C 53.500 90.000,53.567 90.667,53.667 90.667 C 53.758 90.667,53.833 90.842,53.833 91.056 C 53.833 91.407,54.527 92.247,55.439 93.000 C 55.816 93.312,59.770 93.368,59.964 93.064 C 60.030 92.962,60.233 92.829,60.417 92.768 C 60.891 92.612,61.844 91.283,61.883 90.723 L 61.917 90.250 60.542 90.202 C 59.458 90.163,59.167 90.202,59.167 90.384 C 59.167 91.141,57.468 91.468,56.833 90.833 C 56.650 90.650,56.500 90.388,56.500 90.250 C 56.500 90.112,56.425 90.000,56.333 90.000 C 56.242 90.000,56.167 89.925,56.167 89.833 C 56.167 89.729,57.250 89.667,59.083 89.667 L 62.000 89.667 62.000 88.539 C 62.000 85.985,60.486 84.667,57.552 84.667 C 56.698 84.667,56.000 84.736,56.000 84.820 M96.000 88.750 L 96.000 92.833 97.500 92.833 L 99.000 92.833 99.000 88.750 L 99.000 84.667 97.500 84.667 L 96.000 84.667 96.000 88.750 M137.942 85.027 C 137.234 85.385,136.500 86.098,136.500 86.427 C 136.500 86.544,136.406 86.670,136.292 86.708 C 135.931 86.829,136.005 91.045,136.375 91.454 C 136.535 91.631,136.667 91.827,136.667 91.888 C 136.667 91.950,136.817 92.150,137.000 92.333 C 137.183 92.517,137.384 92.667,137.445 92.667 C 137.507 92.667,137.702 92.798,137.879 92.958 C 138.287 93.328,142.338 93.402,142.458 93.042 C 142.496 92.927,142.603 92.833,142.696 92.833 C 143.243 92.833,144.333 91.283,144.333 90.505 C 144.333 89.961,141.770 89.993,141.481 90.542 C 140.900 91.644,139.146 91.322,138.758 90.042 L 138.644 89.667 141.489 89.667 L 144.333 89.667 144.332 88.625 C 144.331 87.487,144.076 86.333,143.825 86.333 C 143.738 86.333,143.667 86.258,143.667 86.167 C 143.667 84.957,139.659 84.159,137.942 85.027 M145.167 88.750 L 145.167 92.833 146.583 92.833 L 148.000 92.833 148.000 88.750 L 148.000 84.667 146.583 84.667 L 145.167 84.667 145.167 88.750 M49.802 87.173 C 50.501 87.825,50.295 88.000,48.833 88.000 C 47.700 88.000,47.500 87.958,47.500 87.722 C 47.500 86.888,49.089 86.509,49.802 87.173 M58.741 87.227 C 59.449 87.883,59.299 88.000,57.755 88.000 C 56.483 88.000,56.354 87.971,56.447 87.708 C 56.786 86.754,57.964 86.507,58.741 87.227 M141.135 87.173 C 141.834 87.825,141.629 88.000,140.167 88.000 C 139.093 88.000,138.833 87.951,138.833 87.750 C 138.833 86.908,140.423 86.509,141.135 87.173 M67.837 87.673 C 68.481 88.877,67.800 91.000,66.769 91.000 C 65.074 91.000,64.706 87.788,66.332 87.197 C 66.847 87.010,67.611 87.252,67.837 87.673 M104.475 87.183 C 104.764 87.284,105.000 87.471,105.000 87.600 C 105.000 87.728,105.075 87.833,105.167 87.833 C 105.562 87.833,105.350 89.696,104.908 90.106 C 103.905 91.035,102.667 90.370,102.667 88.901 C 102.667 87.613,102.770 87.458,103.933 87.007 C 103.943 87.003,104.186 87.082,104.475 87.183 M154.042 87.536 C 154.494 88.055,154.448 89.714,153.969 90.160 C 152.975 91.086,151.665 90.337,151.669 88.846 C 151.674 87.211,153.080 86.435,154.042 87.536 M40.403 87.268 C 40.548 87.323,40.667 87.473,40.667 87.601 C 40.667 87.729,40.742 87.833,40.833 87.833 C 41.215 87.833,41.012 90.057,40.586 90.542 C 39.568 91.699,38.333 90.853,38.333 88.998 C 38.333 87.427,39.115 86.774,40.403 87.268 M19.000 88.500 L 19.000 89.667 21.417 89.667 L 23.833 89.667 23.833 88.500 L 23.833 87.333 21.417 87.333 L 19.000 87.333 19.000 88.500 M105.395 92.777 C 105.038 94.199,102.667 94.311,102.667 92.906 C 102.667 92.866,103.151 92.833,103.743 92.833 C 104.479 92.833,104.888 92.756,105.035 92.590 C 105.368 92.212,105.517 92.289,105.395 92.777 M154.334 92.999 C 154.023 94.081,152.057 94.256,151.797 93.226 C 151.712 92.887,151.775 92.864,152.966 92.804 C 153.796 92.762,154.250 92.668,154.297 92.527 C 154.452 92.061,154.484 92.474,154.334 92.999 M2.500 102.074 C 2.500 102.217,2.567 102.333,2.648 102.333 C 2.730 102.333,2.844 102.590,2.903 102.905 C 2.962 103.219,3.065 103.500,3.132 103.530 C 3.199 103.559,3.477 104.277,3.750 105.125 C 4.023 105.973,4.295 106.667,4.355 106.667 C 4.414 106.667,4.512 106.929,4.572 107.250 C 4.633 107.571,4.753 107.833,4.841 107.833 C 4.928 107.833,5.003 108.002,5.006 108.208 C 5.009 108.415,5.156 108.883,5.333 109.250 C 5.510 109.617,5.658 110.042,5.661 110.194 C 5.664 110.347,5.726 110.497,5.800 110.528 C 5.873 110.558,6.122 111.146,6.353 111.833 L 6.772 113.083 7.465 113.134 L 8.157 113.185 8.348 112.426 C 8.454 112.008,8.597 111.667,8.668 111.667 C 8.738 111.667,8.848 111.389,8.912 111.050 C 8.975 110.711,9.134 110.282,9.264 110.096 C 9.394 109.911,9.500 109.625,9.500 109.461 C 9.500 109.296,9.572 109.032,9.661 108.873 C 9.936 108.377,10.500 107.026,10.500 106.862 C 10.500 106.775,10.612 106.490,10.749 106.227 C 10.886 105.965,11.001 105.638,11.005 105.500 C 11.008 105.362,11.156 104.950,11.333 104.583 C 11.510 104.217,11.658 103.792,11.661 103.639 C 11.664 103.486,11.747 103.334,11.844 103.302 C 11.942 103.269,12.064 102.926,12.116 102.538 L 12.211 101.833 11.613 101.833 C 11.062 101.833,11.007 101.879,10.906 102.417 C 10.845 102.737,10.730 103.000,10.648 103.000 C 10.567 103.000,10.497 103.169,10.494 103.375 C 10.491 103.581,10.344 104.050,10.167 104.417 C 9.990 104.783,9.842 105.215,9.839 105.375 C 9.836 105.535,9.758 105.667,9.667 105.667 C 9.575 105.667,9.500 105.787,9.500 105.933 C 9.500 106.080,9.399 106.436,9.275 106.725 C 8.945 107.495,8.378 109.020,8.243 109.500 C 8.179 109.729,8.067 109.992,7.995 110.083 C 7.922 110.175,7.811 110.531,7.746 110.875 C 7.600 111.658,7.403 111.675,7.261 110.917 C 7.201 110.596,7.080 110.333,6.992 110.333 C 6.905 110.333,6.831 110.165,6.828 109.958 C 6.825 109.752,6.677 109.283,6.500 108.917 C 6.323 108.550,6.173 108.138,6.167 108.000 C 6.160 107.862,6.010 107.450,5.833 107.083 C 5.656 106.717,5.509 106.322,5.506 106.206 C 5.503 106.090,5.429 105.865,5.341 105.706 C 5.107 105.279,4.710 104.310,4.574 103.833 C 4.509 103.604,4.406 103.379,4.345 103.333 C 4.285 103.287,4.163 102.950,4.076 102.583 C 3.902 101.857,2.500 101.404,2.500 102.074 M56.867 102.033 C 56.757 102.143,56.667 102.376,56.667 102.550 C 56.667 103.048,55.613 104.000,55.058 104.002 C 53.903 104.008,53.833 104.090,53.833 105.436 L 53.833 106.667 55.167 106.667 L 56.500 106.667 56.500 109.917 L 56.500 113.167 57.917 113.167 L 59.333 113.167 59.333 107.500 L 59.333 101.833 58.200 101.833 C 57.541 101.833,56.983 101.917,56.867 102.033 M68.208 102.235 C 68.002 102.452,67.833 102.680,67.833 102.741 C 67.833 102.802,67.609 103.091,67.334 103.384 C 67.060 103.677,66.835 103.967,66.834 104.029 C 66.834 104.091,66.608 104.366,66.333 104.641 C 66.058 104.916,65.833 105.192,65.833 105.255 C 65.833 105.318,65.686 105.530,65.507 105.727 C 65.327 105.923,64.914 106.421,64.589 106.833 C 64.264 107.246,63.920 107.677,63.825 107.792 C 63.728 107.910,63.674 108.598,63.702 109.375 L 63.750 110.750 66.375 110.796 L 69.000 110.842 69.000 112.004 L 69.000 113.167 70.417 113.167 L 71.833 113.167 71.833 112.000 L 71.833 110.833 72.583 110.833 L 73.333 110.833 73.333 109.583 L 73.333 108.333 72.583 108.333 L 71.833 108.333 71.833 105.083 L 71.833 101.833 70.208 101.836 C 68.716 101.839,68.553 101.871,68.208 102.235 M32.000 103.167 C 32.000 103.981,32.011 104.000,32.500 104.000 C 32.989 104.000,33.000 103.981,33.000 103.167 C 33.000 102.352,32.989 102.333,32.500 102.333 C 32.011 102.333,32.000 102.352,32.000 103.167 M45.266 104.612 C 45.091 104.661,44.755 104.881,44.518 105.101 C 43.972 105.607,43.833 105.603,43.833 105.083 C 43.833 104.731,43.756 104.667,43.333 104.667 L 42.833 104.667 42.833 108.917 L 42.833 113.167 43.333 113.167 L 43.833 113.167 43.833 110.500 C 43.833 109.033,43.900 107.833,43.981 107.833 C 44.063 107.833,44.177 107.582,44.235 107.274 C 44.631 105.158,48.167 105.142,48.167 107.256 C 48.167 107.573,48.242 107.833,48.333 107.833 C 48.438 107.833,48.500 108.833,48.500 110.500 L 48.500 113.167 49.000 113.167 L 49.500 113.167 49.500 109.843 C 49.500 107.807,49.435 106.480,49.333 106.417 C 49.242 106.360,49.165 106.187,49.164 106.032 C 49.161 105.728,48.479 105.000,48.199 105.000 C 48.105 105.000,47.998 104.909,47.961 104.799 C 47.890 104.588,45.853 104.446,45.266 104.612 M13.667 104.820 C 13.667 104.904,13.458 105.019,13.202 105.076 C 12.884 105.145,12.556 105.451,12.160 106.047 L 11.583 106.917 11.583 109.153 C 11.583 110.794,11.639 111.407,11.792 111.458 C 11.906 111.497,12.000 111.624,12.000 111.741 C 12.000 113.044,15.213 114.025,16.849 113.222 C 17.509 112.898,18.167 112.249,18.167 111.922 C 18.167 111.797,18.235 111.669,18.319 111.639 C 18.403 111.608,18.524 111.302,18.588 110.958 C 18.704 110.333,18.704 110.333,18.123 110.333 C 17.609 110.333,17.530 110.392,17.441 110.838 C 17.334 111.372,16.607 112.167,16.226 112.167 C 16.102 112.167,16.000 112.242,16.000 112.333 C 16.000 112.425,15.625 112.500,15.167 112.500 C 14.708 112.500,14.333 112.443,14.333 112.374 C 14.333 112.305,14.121 112.154,13.860 112.039 C 13.600 111.924,13.282 111.624,13.152 111.373 C 13.023 111.122,12.872 110.879,12.816 110.833 C 12.760 110.787,12.663 110.469,12.600 110.125 L 12.485 109.500 15.576 109.500 L 18.667 109.500 18.661 108.375 C 18.654 106.725,17.920 105.320,16.937 105.073 C 16.697 105.013,16.500 104.897,16.500 104.815 C 16.500 104.734,15.862 104.667,15.083 104.667 C 14.304 104.667,13.667 104.736,13.667 104.820 M22.917 104.833 C 22.860 104.925,22.673 105.000,22.502 105.000 C 22.331 105.000,22.091 105.098,21.970 105.218 C 21.510 105.672,21.167 105.684,21.167 105.245 C 21.167 104.899,21.087 104.833,20.667 104.833 L 20.167 104.833 20.167 109.000 L 20.167 113.167 20.650 113.167 L 21.133 113.167 21.192 110.306 C 21.234 108.208,21.306 107.426,21.458 107.375 C 21.573 107.337,21.667 107.212,21.667 107.098 C 21.667 106.744,22.406 106.177,23.008 106.068 C 24.678 105.768,25.269 104.667,23.760 104.667 C 23.353 104.667,22.973 104.742,22.917 104.833 M25.632 104.940 C 24.728 105.417,23.889 108.167,24.647 108.167 C 24.728 108.167,24.831 108.306,24.875 108.476 C 24.920 108.647,25.172 108.840,25.435 108.906 C 25.698 108.972,25.956 109.095,26.008 109.179 C 26.060 109.263,26.567 109.380,27.134 109.440 C 27.702 109.499,28.167 109.602,28.167 109.670 C 28.167 109.737,28.396 109.838,28.676 109.894 C 29.929 110.144,30.132 112.167,28.905 112.167 C 28.774 112.167,28.667 112.242,28.667 112.333 C 28.667 112.426,28.222 112.500,27.667 112.500 C 27.111 112.500,26.667 112.426,26.667 112.333 C 26.667 112.242,26.567 112.167,26.446 112.167 C 26.160 112.167,25.502 111.466,25.495 111.156 C 25.486 110.752,25.066 110.333,24.670 110.333 C 24.314 110.333,24.297 110.386,24.364 111.311 C 24.440 112.359,25.018 113.167,25.691 113.167 C 25.861 113.167,26.000 113.242,26.000 113.333 C 26.000 114.054,30.257 113.245,30.455 112.487 C 30.501 112.311,30.605 112.167,30.686 112.167 C 30.767 112.167,30.833 111.680,30.833 111.085 C 30.833 109.526,29.977 108.667,28.422 108.667 C 28.098 108.667,27.833 108.601,27.833 108.522 C 27.833 108.442,27.506 108.340,27.106 108.295 C 24.826 108.038,25.222 105.667,27.545 105.667 C 28.225 105.667,29.333 106.245,29.333 106.600 C 29.333 106.728,29.408 106.833,29.500 106.833 C 29.592 106.833,29.667 106.946,29.667 107.083 C 29.667 107.239,29.824 107.333,30.083 107.333 C 30.901 107.333,30.545 105.447,29.665 105.115 C 29.391 105.012,29.167 104.868,29.167 104.797 C 29.167 104.562,26.115 104.685,25.632 104.940 M36.167 104.833 C 36.167 104.925,36.070 105.000,35.951 105.000 C 35.703 105.000,34.500 106.220,34.500 106.471 C 34.500 106.563,34.406 106.670,34.292 106.708 C 33.916 106.833,33.905 110.659,34.279 111.351 C 35.123 112.915,36.054 113.500,37.701 113.500 C 39.283 113.500,40.811 112.561,41.099 111.412 C 41.157 111.184,41.270 110.956,41.352 110.905 C 41.624 110.737,41.522 107.820,41.217 107.020 C 40.929 106.265,40.262 105.484,39.458 104.958 C 38.956 104.630,36.167 104.524,36.167 104.833 M32.000 109.083 L 32.000 113.167 32.500 113.167 L 33.000 113.167 33.000 109.083 L 33.000 105.000 32.500 105.000 L 32.000 105.000 32.000 109.083 M16.240 105.958 C 16.563 106.119,16.872 106.381,16.925 106.542 C 16.979 106.702,17.092 106.833,17.176 106.833 C 17.260 106.833,17.377 107.133,17.436 107.500 C 17.495 107.867,17.608 108.167,17.688 108.167 C 17.768 108.167,17.833 108.279,17.833 108.417 C 17.833 108.629,17.424 108.667,15.153 108.667 L 12.474 108.667 12.582 108.125 C 12.782 107.124,13.373 106.184,13.872 106.075 C 14.126 106.019,14.333 105.904,14.333 105.820 C 14.333 105.558,15.623 105.652,16.240 105.958 M38.500 105.833 C 38.500 105.925,38.607 106.000,38.737 106.000 C 39.142 106.000,39.982 106.984,40.096 107.592 C 40.156 107.910,40.271 108.211,40.352 108.262 C 40.544 108.380,40.546 109.833,40.355 109.833 C 40.275 109.833,40.162 110.128,40.105 110.487 C 39.996 111.168,39.183 112.167,38.737 112.167 C 38.607 112.167,38.500 112.242,38.500 112.333 C 38.500 112.425,38.125 112.500,37.667 112.500 C 37.208 112.500,36.833 112.425,36.833 112.333 C 36.833 112.242,36.726 112.167,36.595 112.167 C 36.168 112.167,35.351 110.972,35.143 110.044 C 34.773 108.388,35.639 106.000,36.610 106.000 C 36.733 106.000,36.833 105.925,36.833 105.833 C 36.833 105.742,37.208 105.667,37.667 105.667 C 38.125 105.667,38.500 105.742,38.500 105.833 M68.944 108.278 C 68.905 108.318,68.362 108.327,67.737 108.300 L 66.601 108.250 67.759 106.923 L 68.917 105.595 68.966 106.901 C 68.993 107.620,68.983 108.239,68.944 108.278 M60.333 111.750 L 60.333 113.167 61.750 113.167 L 63.167 113.167 63.167 111.750 L 63.167 110.333 61.750 110.333 L 60.333 110.333 60.333 111.750 " stroke="none" fill="#fcfcf4" fill-rule="evenodd"></path><path id="path2" d="" stroke="none" fill="#2b4d6d" fill-rule="evenodd"></path><path id="path3" d="M311.918 61.832 C 311.656 62.106,311.473 62.356,311.512 62.389 C 311.551 62.422,311.797 62.197,312.058 61.891 C 312.648 61.199,312.560 61.162,311.918 61.832 M310.333 64.777 C 310.333 64.867,310.540 65.124,310.792 65.346 L 311.250 65.750 310.833 65.250 C 310.604 64.975,310.398 64.719,310.375 64.681 C 310.352 64.642,310.333 64.686,310.333 64.777 M319.000 75.108 C 319.000 75.198,319.244 75.491,319.542 75.760 L 320.083 76.250 319.583 75.667 C 319.308 75.347,319.065 75.053,319.042 75.015 C 319.019 74.976,319.000 75.018,319.000 75.108 M321.652 78.305 C 321.742 78.473,321.946 78.717,322.106 78.847 C 322.286 78.993,322.246 78.877,322.001 78.542 C 321.563 77.944,321.399 77.833,321.652 78.305 " stroke="none" fill="#9c9c9c" fill-rule="evenodd"></path><path id="path4" d="M327.833 42.643 C 327.833 42.752,327.517 43.195,327.131 43.629 C 326.435 44.409,326.434 44.411,327.061 43.833 C 327.743 43.205,328.085 42.696,327.930 42.541 C 327.877 42.488,327.833 42.534,327.833 42.643 M320.875 50.992 C 320.485 51.438,320.167 51.860,320.167 51.930 C 320.167 52.000,320.035 52.213,319.875 52.404 C 319.584 52.750,319.584 52.750,319.958 52.433 C 320.165 52.258,320.333 52.028,320.333 51.922 C 320.333 51.816,320.565 51.509,320.848 51.240 C 321.287 50.821,321.780 50.151,321.631 50.174 C 321.605 50.178,321.265 50.546,320.875 50.992 M318.188 54.246 C 317.810 54.657,317.502 55.088,317.505 55.205 C 317.508 55.321,317.593 55.267,317.693 55.083 C 317.794 54.900,318.145 54.469,318.472 54.125 C 318.800 53.781,319.024 53.500,318.972 53.500 C 318.919 53.500,318.566 53.836,318.188 54.246 M316.513 56.129 C 316.506 56.245,316.186 56.695,315.801 57.129 L 315.103 57.917 315.905 57.144 C 316.370 56.696,316.669 56.276,316.617 56.144 C 316.550 55.977,316.523 55.973,316.513 56.129 M313.846 59.320 C 313.839 59.450,313.705 59.713,313.548 59.904 C 313.279 60.230,313.285 60.230,313.651 59.892 C 313.865 59.696,313.999 59.433,313.950 59.309 C 313.877 59.126,313.857 59.128,313.846 59.320 M310.084 63.997 C 310.027 64.178,310.044 64.442,310.123 64.583 C 310.225 64.765,310.267 64.668,310.267 64.253 C 310.267 63.582,310.232 63.533,310.084 63.997 M312.083 67.000 C 312.441 67.367,312.772 67.667,312.818 67.667 C 312.863 67.667,312.608 67.367,312.250 67.000 C 311.892 66.633,311.562 66.333,311.516 66.333 C 311.470 66.333,311.725 66.633,312.083 67.000 M313.782 68.989 C 313.829 69.166,314.028 69.448,314.225 69.614 C 314.580 69.914,314.581 69.914,314.292 69.570 C 314.131 69.380,314.000 69.140,314.000 69.038 C 314.000 68.936,313.932 68.811,313.849 68.760 C 313.766 68.708,313.736 68.811,313.782 68.989 M316.273 71.917 C 316.658 72.575,316.667 72.585,316.667 72.380 C 316.667 72.283,316.512 72.027,316.323 71.810 L 315.980 71.417 316.273 71.917 M320.173 76.619 C 320.181 76.770,321.667 78.414,321.667 78.272 C 321.667 78.220,321.329 77.798,320.917 77.333 C 320.504 76.869,320.170 76.548,320.173 76.619 M323.438 80.500 C 323.725 80.821,324.000 81.196,324.050 81.333 C 324.128 81.550,324.142 81.548,324.154 81.324 C 324.161 81.182,323.885 80.807,323.542 80.491 L 322.917 79.917 323.438 80.500 M325.667 83.250 C 325.978 83.571,326.270 83.833,326.315 83.833 C 326.361 83.833,326.144 83.571,325.833 83.250 C 325.522 82.929,325.230 82.667,325.185 82.667 C 325.139 82.667,325.356 82.929,325.667 83.250 M327.680 85.513 C 327.673 85.657,327.873 85.957,328.125 86.179 L 328.583 86.583 328.230 86.167 C 328.035 85.938,327.835 85.638,327.784 85.500 C 327.706 85.286,327.691 85.288,327.680 85.513 " stroke="none" fill="#c4c4bc" fill-rule="evenodd"></path></g></svg>